<svg width="146" height="19" viewBox="0 0 146 19" fill="none" xmlns="http://www.w3.org/2000/svg">
<g clip-path="url(#clip0_3127_695)">
<mask id="mask0_3127_695" style="mask-type:luminance" maskUnits="userSpaceOnUse" x="0" y="0" width="146" height="19">
<path d="M0.22998 0.684082H145.4V18.6841H0.22998V0.684082Z" fill="white"/>
</mask>
<g mask="url(#mask0_3127_695)">
<path d="M5.50991 8.88409C5.45753 8.81371 5.38756 8.75836 5.30702 8.72358C5.22647 8.6888 5.1382 8.67583 5.05106 8.68596C4.96392 8.6961 4.88097 8.72898 4.81056 8.78131C4.74015 8.83364 4.68474 8.90357 4.64991 8.98409L0.299909 17.7041C0.258723 17.7833 0.238602 17.8717 0.241482 17.9609C0.244361 18.0501 0.270144 18.137 0.316351 18.2134C0.362557 18.2897 0.427632 18.3529 0.505315 18.3968C0.582998 18.4407 0.670674 18.4639 0.759909 18.4641H6.83991C6.93919 18.4664 7.0369 18.4391 7.12061 18.3857C7.20432 18.3323 7.27022 18.2551 7.30991 18.1641C8.60991 15.4841 7.81991 11.3441 5.51991 8.88409H5.50991Z" fill="url(#paint0_linear_3127_695)"/>
<path d="M8.70989 0.964158C7.62237 2.63688 6.98874 4.56377 6.87127 6.55548C6.7538 8.54719 7.15653 10.5352 8.03989 12.3242L10.9999 18.1642C11.0409 18.2521 11.1058 18.3268 11.1871 18.3798C11.2684 18.4329 11.3629 18.4621 11.4599 18.4642H17.5399C17.6262 18.4574 17.7096 18.4299 17.7831 18.3841C17.8566 18.3383 17.918 18.2755 17.9621 18.201C18.0063 18.1264 18.0318 18.0424 18.0366 17.9559C18.0415 17.8695 18.0254 17.7831 17.9899 17.7042L9.59989 0.964158C9.55793 0.882258 9.49418 0.813525 9.41567 0.76553C9.33715 0.717535 9.24691 0.692139 9.15489 0.692139C9.06287 0.692139 8.97263 0.717535 8.89411 0.76553C8.8156 0.813525 8.75185 0.882258 8.70989 0.964158ZM137.07 10.2642L141.47 18.4642H145.4V3.82416H142.28V13.2742L141.1 10.5342L137.56 3.83416H132.63V18.4642H135.75V7.30416L137.07 10.2642ZM112.8 3.82416H109.4V18.4642H112.8V3.82416ZM105.46 14.1342C105.46 11.5742 104.1 10.3742 100.26 9.54416C98.1599 9.07416 97.6399 8.61416 97.6399 7.93416C97.6399 7.08416 98.3999 6.73416 99.7899 6.73416C101.49 6.73416 103.16 7.23416 104.74 7.95416V4.60416C103.221 3.91362 101.568 3.57192 99.8999 3.60416C96.1099 3.60416 94.1499 5.25416 94.1499 7.95416C94.1499 10.1042 95.1499 11.8242 99.0699 12.5842C101.41 13.0742 101.91 13.4542 101.91 14.2342C101.91 15.0142 101.41 15.4742 99.7499 15.4742C97.7599 15.4442 95.8099 14.9142 94.0699 13.9442V17.4642C95.2499 18.0342 96.8099 18.6842 99.7199 18.6842C103.82 18.6842 105.44 16.8542 105.44 14.1442M91.2699 14.1342C91.2699 11.5742 89.9299 10.3742 86.0799 9.54416C83.9699 9.07416 83.4499 8.61416 83.4499 7.93416C83.4499 7.08416 84.2099 6.73416 85.5999 6.73416C87.2999 6.73416 88.9699 7.23416 90.5499 7.95416V4.60416C89.0315 3.91362 87.3777 3.57192 85.7099 3.60416C81.9199 3.60416 79.9599 5.25416 79.9599 7.95416C79.9599 10.1042 80.9599 11.8242 84.8899 12.5842C87.2199 13.0742 87.7099 13.4542 87.7099 14.2342C87.7099 15.0142 87.2199 15.4742 85.5599 15.4742C83.5699 15.4442 81.6199 14.9142 79.8799 13.9442V17.4642C81.0699 18.0342 82.6199 18.6842 85.5299 18.6842C89.6299 18.6842 91.2499 16.8542 91.2499 14.1442M56.9299 15.3042V3.82416H53.4999V18.4642H60.4999L61.6099 15.3042H56.9299ZM46.8799 18.4642V6.99416H50.9299V3.82416H39.6599V6.99416H43.4499V18.4642H46.8799ZM34.6899 3.82416H30.1899L25.0899 18.4642H28.9899L29.7199 15.9942C31.4999 16.5242 33.3999 16.5242 35.1799 15.9942L35.8999 18.4642H39.7999L34.6999 3.82416H34.6899ZM32.4399 13.3642C31.7999 13.3642 31.1699 13.2642 30.5599 13.0942L32.4399 6.70416L34.3199 13.0942C33.7199 13.2742 33.0799 13.3642 32.4399 13.3642ZM72.5799 3.82416H68.0999L62.9999 18.4642H66.8899L67.6199 15.9942C69.3999 16.5242 71.2899 16.5242 73.0699 15.9942L73.7999 18.4642H77.6999L72.5999 3.82416H72.5799ZM70.3399 13.3642C69.6999 13.3642 69.0699 13.2642 68.4599 13.0942L70.3399 6.70416L72.2199 13.0942C71.6099 13.2742 70.9699 13.3642 70.3399 13.3642ZM125.08 3.82416H120.58L115.48 18.4642H119.38L120.1 15.9942C121.88 16.5242 123.77 16.5242 125.56 15.9942L126.28 18.4642H130.18L125.08 3.82416ZM122.83 13.3642C122.2 13.3642 121.56 13.2642 120.95 13.0942L122.83 6.70416L124.71 13.0942C124.11 13.2742 123.47 13.3642 122.83 13.3642Z" fill="black"/>
</g>
</g>
<defs>
<linearGradient id="paint0_linear_3127_695" x1="7.90991" y1="10.2341" x2="3.29991" y2="18.2141" gradientUnits="userSpaceOnUse">
<stop/>
<stop offset="0.92"/>
</linearGradient>
<clipPath id="clip0_3127_695">
<rect width="146" height="18" fill="white" transform="translate(0 0.684082)"/>
</clipPath>
</defs>
</svg>
