<svg width="71" height="23" viewBox="0 0 71 23" fill="none" xmlns="http://www.w3.org/2000/svg">
<g clip-path="url(#clip0_3127_681)">
<mask id="mask0_3127_681" style="mask-type:luminance" maskUnits="userSpaceOnUse" x="0" y="0" width="71" height="23">
<path d="M0.360098 0.684082H70.8601V22.6841H0.350098L0.360098 0.684082Z" fill="white"/>
</mask>
<g mask="url(#mask0_3127_681)">
<path d="M37.5101 6.21408C37.5101 6.59334 37.3595 6.95707 37.0913 7.22524C36.8231 7.49342 36.4594 7.64408 36.0801 7.64408C35.7009 7.64408 35.3372 7.49342 35.069 7.22524C34.8008 6.95707 34.6501 6.59334 34.6501 6.21408C34.6501 5.41408 35.2701 4.78408 36.0801 4.78408C36.9001 4.80408 37.5101 5.44408 37.5101 6.21408ZM31.6101 9.09408V9.44408C31.6101 9.44408 30.9301 8.56408 29.4801 8.56408C28.9089 8.55564 28.342 8.66326 27.8136 8.88041C27.2853 9.09756 26.8065 9.41973 26.4063 9.82739C26.0061 10.235 25.6929 10.7197 25.4856 11.252C25.2782 11.7843 25.1811 12.3531 25.2001 12.9241C25.1811 13.495 25.2782 14.0639 25.4856 14.5962C25.6929 15.1285 26.0061 15.6131 26.4063 16.0208C26.8065 16.4284 27.2853 16.7506 27.8136 16.9678C28.342 17.1849 28.9089 17.2925 29.4801 17.2841C30.9501 17.2841 31.6101 16.3841 31.6101 16.3841V16.7641C31.6101 16.9341 31.7401 17.0641 31.9201 17.0641H33.7001V8.78408H31.9201C31.7401 8.78408 31.6201 8.94408 31.6201 9.09408H31.6101ZM31.6101 14.4041C31.2801 14.8841 30.6201 15.3041 29.8301 15.3041C28.4201 15.3041 27.3401 14.4241 27.3401 12.9241C27.3401 11.4241 28.4201 10.5541 29.8301 10.5541C30.6001 10.5541 31.3001 10.9941 31.6101 11.4541V14.4041ZM35.0301 8.78408H37.1401V17.0641H35.0301V8.78408ZM66.6101 8.56408C65.1501 8.56408 64.4701 9.44408 64.4701 9.44408V4.80408H62.3601V17.0641H64.1401C64.3201 17.0641 64.4401 16.9141 64.4401 16.7641V16.3841C64.4401 16.3841 65.1301 17.2841 66.5801 17.2841C68.9801 17.2841 70.8601 15.4341 70.8601 12.9241C70.879 12.3557 70.7828 11.7894 70.5773 11.2591C70.3718 10.7288 70.0613 10.2456 69.6643 9.83833C69.2674 9.4311 68.7922 9.1083 68.2674 8.88933C67.7425 8.67036 67.1788 8.55973 66.6101 8.56408ZM66.2501 15.2841C65.4401 15.2841 64.8001 14.8641 64.4701 14.3841V11.4341C64.8001 10.9941 65.5001 10.5341 66.2501 10.5341C67.6601 10.5341 68.7501 11.4041 68.7501 12.9041C68.7501 14.4041 67.6601 15.2841 66.2501 15.2841ZM61.2501 12.1541V17.0941H59.1401V12.3941C59.1401 11.0341 58.7001 10.4841 57.5101 10.4841C56.8701 10.4841 56.2101 10.8141 55.7901 11.2941V17.0641H53.6801V8.78408H55.3501C55.5301 8.78408 55.6601 8.94408 55.6601 9.09408V9.44408C55.9548 9.15093 56.3066 8.92152 56.6936 8.77013C57.0807 8.61874 57.4948 8.5486 57.9101 8.56408C58.8301 8.56408 59.6101 8.83408 60.2101 9.36408C60.9701 9.97408 61.2501 10.7641 61.2501 12.1641V12.1541ZM48.5501 8.56408C47.0901 8.56408 46.4101 9.44408 46.4101 9.44408V4.80408H44.3001V17.0641H46.0801C46.2601 17.0641 46.3801 16.9141 46.3801 16.7641V16.3841C46.3801 16.3841 47.0801 17.2841 48.5301 17.2841C50.9301 17.2841 52.8001 15.4341 52.8001 12.9241C52.8219 12.355 52.7276 11.7874 52.5232 11.2559C52.3187 10.7243 52.0083 10.2399 51.6107 9.83208C51.2132 9.42426 50.7369 9.10155 50.2107 8.88357C49.6846 8.66558 49.1196 8.55689 48.5501 8.56408ZM48.2001 15.2841C47.3801 15.2841 46.7401 14.8641 46.4101 14.3841V11.4341C46.7401 10.9941 47.4501 10.5341 48.2001 10.5341C49.6001 10.5341 50.6801 11.4041 50.6801 12.9041C50.6801 14.4041 49.6001 15.2841 48.2001 15.2841ZM42.4701 8.56408C43.1101 8.56408 43.4401 8.67408 43.4401 8.67408V10.6341C43.4401 10.6341 41.6801 10.0341 40.5801 11.2941V17.0941H38.4601V8.78408H40.2401C40.4201 8.78408 40.5501 8.93408 40.5501 9.08408V9.43408C41.0568 8.90984 41.7423 8.59565 42.4701 8.55408V8.56408ZM20.5001 16.3241C20.4001 16.0541 20.2801 15.7741 20.1701 15.5241L19.6701 14.4041L19.6401 14.3841C18.1201 11.0841 16.5001 7.73408 14.7801 4.42408L14.7101 4.29408L14.1801 3.26408C13.9601 2.86408 13.7401 2.44408 13.3901 2.05408C13.0589 1.62962 12.6358 1.28581 12.1525 1.04851C11.6693 0.811212 11.1385 0.68661 10.6001 0.684082C9.50014 0.684082 8.51014 1.16408 7.78014 2.00408C7.45014 2.40408 7.21014 2.82408 6.99014 3.21408L6.46014 4.25408L6.40014 4.38408C4.70014 7.68408 3.05014 11.0341 1.53014 14.3341L1.51014 14.3841L1.01014 15.5041C0.890136 15.7441 0.780136 16.0041 0.670136 16.3041C0.37602 17.0599 0.283376 17.8792 0.401286 18.6816C0.519196 19.484 0.843612 20.2421 1.34273 20.8813C1.84184 21.5206 2.49852 22.0192 3.24838 22.3282C3.99824 22.6372 4.81554 22.7461 5.62014 22.6441C6.39644 22.5445 7.14469 22.2895 7.82014 21.8941C8.73014 21.3941 9.59014 20.6541 10.5601 19.5941C11.3457 20.4974 12.2666 21.2733 13.2901 21.8941C14.1327 22.3854 15.0852 22.657 16.0601 22.6841C17.1875 22.6909 18.2792 22.2897 19.1339 21.5545C19.9886 20.8193 20.5484 19.7998 20.7101 18.6841C20.8901 17.9041 20.8001 17.1341 20.5101 16.3241H20.5001ZM10.5701 17.4641C9.54203 16.2743 8.78458 14.8754 8.35014 13.3641C8.24014 12.8641 8.22014 12.4241 8.28014 12.0241C8.33014 11.6741 8.46014 11.3641 8.63014 11.1041C9.05014 10.5041 9.76013 10.1341 10.5701 10.1341C11.3901 10.1341 12.1101 10.4841 12.5101 11.1041C12.6901 11.3641 12.8101 11.6741 12.8601 12.0241C12.9301 12.4241 12.9101 12.8841 12.8001 13.3641C12.353 14.8722 11.5931 16.2692 10.5701 17.4641ZM19.3601 18.5041C19.2804 19.0699 19.0537 19.6048 18.7028 20.0558C18.3519 20.5067 17.889 20.8578 17.3601 21.0741C16.8301 21.2941 16.2601 21.3641 15.6801 21.2941C15.0902 21.2207 14.5218 21.0267 14.0101 20.7241C13.2101 20.2841 12.4201 19.6041 11.5001 18.5841C12.9501 16.8041 13.8301 15.1841 14.1601 13.7241C14.3201 13.0341 14.3401 12.4241 14.2701 11.8541C14.1874 11.3148 13.9821 10.8017 13.6701 10.3541C13.3208 9.8592 12.8557 9.45738 12.3153 9.1837C11.7749 8.91003 11.1758 8.77282 10.5701 8.78408C9.29014 8.78408 8.15014 9.38408 7.47014 10.3541C7.16014 10.7941 6.96014 11.2941 6.87014 11.8541C6.78014 12.4241 6.81014 13.0541 6.98014 13.7241C7.31014 15.1741 8.22014 16.8241 9.65014 18.6141C8.9382 19.4592 8.08981 20.1791 7.14014 20.7441C6.56014 21.0741 6.01014 21.2441 5.46014 21.3141C4.60085 21.4307 3.73042 21.2012 3.0403 20.6761C2.35018 20.1511 1.8969 19.3734 1.78014 18.5141C1.72014 17.9741 1.76014 17.4141 1.98014 16.8041C2.05014 16.5841 2.16014 16.3641 2.27014 16.1041C2.42014 15.7441 2.60014 15.3741 2.77014 15.0041L2.80014 14.9541C4.32014 11.6741 5.95014 8.32408 7.64014 5.06408L7.71014 4.93408L8.24014 3.92408C8.41014 3.56408 8.61014 3.23408 8.85014 2.95408C9.066 2.69573 9.33595 2.48791 9.64093 2.34531C9.9459 2.2027 10.2785 2.12879 10.6151 2.12879C10.9518 2.12879 11.2844 2.2027 11.5893 2.34531C11.8943 2.48791 12.1643 2.69573 12.3801 2.95408C12.6201 3.23408 12.8201 3.56408 12.9901 3.92408L13.5201 4.93408L13.5901 5.06408C15.2601 8.34408 16.8901 11.6941 18.4101 14.9741V14.9941C18.5901 15.3541 18.7401 15.7441 18.9101 16.0941C19.0301 16.3641 19.1401 16.5841 19.2101 16.8041C19.3801 17.3741 19.4501 17.9241 19.3601 18.5041Z" fill="black"/>
</g>
</g>
<defs>
<clipPath id="clip0_3127_681">
<rect width="71" height="22" fill="white" transform="translate(0 0.684082)"/>
</clipPath>
</defs>
</svg>
