<svg width="75" height="19" viewBox="0 0 75 19" fill="none" xmlns="http://www.w3.org/2000/svg">
<g clip-path="url(#clip0_3127_721)">
<mask id="mask0_3127_721" style="mask-type:luminance" maskUnits="userSpaceOnUse" x="0" y="0" width="75" height="19">
<path d="M0.399902 0.684082H74.1999V18.6841H0.399902V0.684082Z" fill="white"/>
</mask>
<g mask="url(#mask0_3127_721)">
<path fill-rule="evenodd" clip-rule="evenodd" d="M73.2999 13.1442C73.0699 12.9842 72.8799 12.9642 72.7299 13.2742C70.1699 18.8242 65.8499 16.0542 66.2799 16.2942C67.2399 15.8542 69.7599 13.8442 69.3799 11.0442C69.1499 9.34419 67.6799 8.58419 66.1299 8.85419C63.4099 9.33419 62.4299 12.2542 62.9299 14.8542C63.0143 15.2592 63.1487 15.6522 63.3299 16.0242C60.2699 18.5242 59.0499 13.7942 58.9099 13.2242C58.9099 13.1942 61.2799 11.2242 61.9399 6.50419C62.6399 1.56419 61.0599 0.664194 59.4399 0.694194C56.4599 0.744194 55.6599 6.97419 56.7399 12.1642C56.6499 12.1842 56.2199 12.4242 55.5399 12.4442C55.0599 10.9142 52.9699 9.56419 52.4299 10.0842C51.0699 11.3842 52.7599 13.9242 53.9599 14.1142C53.2399 18.5342 48.7599 17.4442 49.5899 11.9142C51.0399 9.19419 52.1599 5.15419 51.9599 2.72419C51.8899 1.86419 51.2499 0.714194 49.8099 0.764194C47.0399 0.874194 46.7399 7.10419 47.0599 11.5242C47.0499 11.4242 46.8899 12.0642 45.7599 12.3842C45.4899 10.8942 43.0899 9.38419 42.5199 10.1142C41.4599 11.4642 43.2999 13.8642 44.1599 14.0342C43.4499 18.4442 38.9599 17.3542 39.7899 11.8142C41.2599 9.11419 42.3699 5.08419 42.1699 2.64419C42.0999 1.78419 41.4699 0.634194 40.0199 0.684194C37.2499 0.794194 36.9499 7.02419 37.2699 11.4442C37.2599 11.3442 37.0999 12.0042 35.9199 12.3242C35.8799 10.3842 33.4699 9.50419 32.8899 10.1242C31.8599 11.2242 33.1299 13.4842 34.2899 14.0242C33.5899 18.4442 29.0899 17.3542 29.9299 11.8242C31.3899 9.11419 32.4999 5.07419 32.2999 2.63419C32.2399 1.78419 31.5999 0.634194 30.1599 0.684194C27.3899 0.794194 27.1599 7.33419 27.4899 11.7642C26.5799 15.6742 23.5099 20.5642 23.9099 10.7642C23.9499 10.0842 23.9899 9.82419 23.6499 9.56419C23.3899 9.36419 22.8099 9.46419 22.4999 9.46419C22.1099 9.48419 21.9999 9.71419 21.9299 10.0642C21.7299 10.9342 21.6899 11.7942 21.6599 12.9642C21.6499 13.5142 21.5999 13.7642 21.3899 14.5142C21.1699 15.2642 19.9799 16.6242 19.3199 16.4042C18.3999 16.0842 18.6999 13.5042 18.8799 11.7442C19.0199 10.3442 18.5599 9.71419 17.3999 9.48419C16.7099 9.34419 16.2999 9.37419 15.5799 9.14419C14.9099 8.92419 14.7599 7.65419 13.3199 8.07419C12.5399 8.31419 13.0399 9.97419 12.8499 11.2142C11.9199 17.2842 9.9899 17.4442 9.0999 14.5042C13.1299 4.61419 10.2499 0.714194 8.5799 0.714194C6.8299 0.714194 4.8299 1.91419 5.6799 9.63419C5.2599 9.52419 5.1399 9.45419 4.6799 9.45419C2.1399 9.45419 0.399902 11.5142 0.399902 14.0542C0.399902 16.5942 2.1399 18.6542 4.6899 18.6542C6.1899 18.6542 7.2499 17.9742 8.0499 16.9242C8.5699 17.6642 9.2099 18.6742 10.3699 18.6242C13.8399 18.4942 14.8399 11.3842 14.9699 10.9842C15.3299 11.0342 15.6899 11.1542 16.0299 11.2042C16.5899 11.2942 16.6399 11.5242 16.6299 12.0842C16.4699 16.9242 17.3599 18.6142 19.3899 18.6142C20.5099 18.6142 21.5199 17.5042 22.2099 16.7142C22.7299 17.7842 23.5499 18.5842 24.6599 18.6142C27.3399 18.6742 28.3699 14.4142 28.2799 14.9642C28.1999 15.4042 29.1399 18.5842 31.9099 18.5942C35.3199 18.6142 35.9599 14.8542 36.0299 14.2242C36.0299 14.1042 36.0499 14.1242 36.0299 14.2242V14.2642C37.1199 14.0642 37.6799 13.4842 37.6799 13.4842C37.6799 13.4842 38.5499 18.6642 41.7699 18.6042C45.1199 18.5442 45.7499 15.1442 45.8299 14.4842C45.8399 14.3342 45.8499 14.3442 45.8299 14.4842V14.5042C47.1299 14.0342 47.4599 13.5642 47.4599 13.5642C47.4599 13.5642 48.1599 18.6342 51.5599 18.6842C54.5899 18.7242 55.7099 15.6142 55.7199 14.3142C56.2299 14.3142 57.1799 14.0142 57.1499 13.9942C57.1499 13.9942 58.2599 18.4242 61.3699 18.6542C62.8199 18.7542 63.9199 17.8342 64.5399 17.4042C65.9999 18.6042 70.8799 20.1042 73.9599 14.8842C74.3999 14.1442 73.4599 13.2642 73.2899 13.1442H73.2999ZM4.5599 16.9442C3.0699 16.9442 2.1199 15.5542 2.1199 14.0742C2.1199 12.5942 2.9999 11.2242 4.4799 11.2242C5.1499 11.2242 5.5199 11.2942 6.0499 11.7442C6.1499 12.1142 6.4099 12.9742 6.5499 13.3742C6.7199 13.8942 6.9299 14.3342 7.1399 14.8142C6.8299 16.0642 5.8499 16.9342 4.5599 16.9342V16.9442ZM8.1799 11.7842C8.1199 11.6842 8.1399 11.7442 8.0699 11.6542C7.7999 10.9142 7.2699 9.25419 7.2099 7.37419C7.1399 5.25419 7.4899 2.75419 8.5399 2.75419C9.2399 2.75419 9.9999 7.81419 8.1799 11.7842ZM29.1299 9.58419C28.9699 8.31419 28.9599 2.68419 30.3099 2.84419C31.0599 3.14419 29.8299 8.44419 29.1299 9.57419V9.58419ZM38.9999 9.58419C38.8299 8.31419 38.8299 2.68419 40.1699 2.84419C40.9199 3.14419 39.6999 8.44419 38.9999 9.57419V9.58419ZM48.7899 9.65419C48.6199 8.39419 48.6099 2.76419 49.9599 2.92419C50.7099 3.21419 49.4899 8.52419 48.7899 9.65419ZM59.5899 2.50419C60.8199 2.37419 60.7699 7.77419 58.2899 11.1742C57.9699 9.94419 57.4899 2.93419 59.5899 2.50419ZM64.7899 14.1142C64.3899 12.1142 65.4099 10.7942 66.4699 10.6542C66.8399 10.5942 67.3699 10.8342 67.4699 11.2842C67.6499 12.1242 67.4499 13.3842 65.0799 14.9642C65.0899 14.9642 64.8699 14.5642 64.7799 14.1142H64.7899ZM22.8999 7.93419C23.1008 7.93419 23.2998 7.89462 23.4854 7.81773C23.671 7.74084 23.8397 7.62814 23.9818 7.48607C24.1238 7.34399 24.2365 7.17533 24.3134 6.9897C24.3903 6.80407 24.4299 6.60512 24.4299 6.40419C24.4299 6.20327 24.3903 6.00432 24.3134 5.81869C24.2365 5.63306 24.1238 5.46439 23.9818 5.32232C23.8397 5.18025 23.671 5.06755 23.4854 4.99066C23.2998 4.91377 23.1008 4.87419 22.8999 4.87419C22.4941 4.87419 22.105 5.03539 21.818 5.32232C21.5311 5.60925 21.3699 5.99841 21.3699 6.40419C21.3699 6.80997 21.5311 7.19914 21.818 7.48607C22.105 7.773 22.4941 7.93419 22.8999 7.93419Z" fill="black"/>
</g>
</g>
<defs>
<clipPath id="clip0_3127_721">
<rect width="75" height="18" fill="white" transform="translate(0 0.684082)"/>
</clipPath>
</defs>
</svg>
