<svg width="67" height="19" viewBox="0 0 67 19" fill="none" xmlns="http://www.w3.org/2000/svg">
<path d="M13.1 8.63408V17.1641C13.1 17.2241 13.09 17.3341 13.01 17.3641C13.01 17.3641 11.16 18.6841 8.09003 18.6841C4.40003 18.6841 0.0100293 17.5241 0.0100293 9.88408C2.92547e-05 2.24408 3.84003 0.684082 7.59003 0.684082C10.83 0.684082 12.14 1.41408 12.34 1.54408C12.4 1.62408 12.44 1.68408 12.44 1.75408L11.81 4.40408C11.81 4.53408 11.68 4.70408 11.51 4.65408C10.98 4.49408 10.17 4.15408 8.29003 4.15408C6.10003 4.15408 3.75003 4.78408 3.75003 9.70408C3.75003 14.6241 5.98003 15.2041 7.59003 15.2041C8.96003 15.2041 9.45003 15.0441 9.45003 15.0441V11.6241H7.26003C7.10003 11.6241 6.98003 11.5041 6.98003 11.3741V8.63408C6.98003 8.50408 7.10003 8.38408 7.26003 8.38408H12.82C12.98 8.38408 13.1 8.50408 13.1 8.63408ZM66.39 12.1041C66.39 17.2041 64.74 18.6541 61.86 18.6541C60.5033 18.7046 59.1733 18.2683 58.11 17.4241C58.11 17.4241 58.05 18.1041 57.98 18.1941C57.93 18.2841 57.86 18.3141 57.77 18.3141H55.57C55.42 18.3141 55.29 18.1941 55.29 18.0641L55.32 1.54408C55.32 1.41408 55.43 1.29408 55.57 1.29408H58.73C58.87 1.29408 58.99 1.41408 58.99 1.54408V7.14408C58.99 7.14408 60.21 6.36408 61.99 6.36408L61.97 6.33408C63.76 6.33408 66.39 7.00408 66.39 12.1041ZM41.15 1.32408C41.28 1.32408 41.4 1.44408 41.4 1.57408V18.0941C41.4 18.2241 41.28 18.3441 41.15 18.3441H37.98C37.9145 18.3416 37.8524 18.3145 37.806 18.2681C37.7596 18.2218 37.7325 18.1596 37.73 18.0941L37.76 11.0341H32.84V18.0941C32.84 18.2241 32.72 18.3441 32.59 18.3441H29.42C29.3 18.3441 29.17 18.2241 29.17 18.0941V1.57408C29.17 1.44408 29.29 1.32408 29.42 1.32408H32.59C32.72 1.32408 32.84 1.44408 32.84 1.57408V7.65408H37.76V1.58408C37.76 1.45408 37.88 1.33408 38.01 1.33408H41.15V1.32408ZM53.43 6.73408C53.59 6.73408 53.71 6.85408 53.71 6.98408L53.68 18.0841C53.68 18.2241 53.59 18.3441 53.43 18.3441H51.43C51.33 18.3441 51.23 18.2841 51.2 18.2041C51.15 18.1241 51.08 17.5441 51.08 17.5441C51.08 17.5441 49.4 18.6841 47.33 18.6841C44.83 18.6841 42.99 17.8641 42.99 14.5941V6.99408C42.99 6.86408 43.11 6.74408 43.25 6.74408H46.43C46.56 6.74408 46.68 6.86408 46.68 7.00408V14.0641C46.68 15.1741 47.01 15.6841 48.12 15.6841C49.24 15.6841 50.05 15.1041 50.05 15.1041V7.01408C50.05 6.85408 50.15 6.73408 50.31 6.73408H53.43ZM27.56 15.6041C27.6218 15.6161 27.6771 15.65 27.7157 15.6997C27.7543 15.7493 27.7736 15.8113 27.77 15.8741V18.1041C27.77 18.2041 27.73 18.3041 27.64 18.3441C27.49 18.4141 26.54 18.6741 25.75 18.6741C24.03 18.6741 21.5 18.2941 21.5 14.6741V9.78408H19.85C19.72 9.78408 19.6 9.66408 19.6 9.50408V7.48408C19.6 7.36408 19.67 7.25408 19.8 7.22408C19.9 7.21408 21.52 6.81408 21.52 6.81408V3.58408C21.52 3.46408 21.59 3.39408 21.72 3.39408H24.93C25.07 3.39408 25.14 3.46408 25.14 3.59408V6.72408H27.51C27.62 6.72408 27.74 6.84408 27.74 6.97408V9.50408C27.74 9.66408 27.64 9.78408 27.51 9.78408H25.14V14.4441C25.14 15.1441 25.54 15.6741 26.7 15.6741C27.07 15.6741 27.42 15.6041 27.56 15.5941V15.6041ZM18.2 6.71408C18.33 6.71408 18.45 6.83408 18.45 6.97408V17.9241C18.45 18.1941 18.38 18.3241 18.08 18.3241H15.23C14.98 18.3241 14.78 18.2241 14.78 17.9241V7.02408C14.78 6.85408 14.9 6.72408 15.04 6.72408H18.2V6.71408ZM62.78 12.3341C62.78 9.64408 61.69 9.29408 60.55 9.41408C59.65 9.46408 58.95 9.91408 58.95 9.91408V15.1441C58.95 15.1441 59.67 15.6441 60.75 15.6841C62.29 15.7241 62.78 15.1841 62.78 12.3341ZM16.64 1.69408C17.75 1.69408 18.66 2.59408 18.66 3.74408C18.66 4.89408 17.76 5.79408 16.64 5.79408C15.5 5.79408 14.59 4.89408 14.59 3.74408C14.59 2.60408 15.49 1.69408 16.64 1.69408ZM27.55 15.5941L27.57 15.6041H27.56L27.52 15.5941H27.55Z" fill="black"/>
</svg>
