<svg width="137" height="19" viewBox="0 0 137 19" fill="none" xmlns="http://www.w3.org/2000/svg">
<g clip-path="url(#clip0_3127_703)">
<mask id="mask0_3127_703" style="mask-type:luminance" maskUnits="userSpaceOnUse" x="0" y="0" width="137" height="19">
<path d="M0.860107 0.684082H136.22V18.6841H0.860107V0.684082Z" fill="white"/>
</mask>
<g mask="url(#mask0_3127_703)">
<path d="M0.860107 16.3441H8.46011C12.0301 16.3441 14.1101 14.8441 14.1101 11.9241C14.1101 10.1041 13.0101 9.00408 11.4501 8.48408C12.128 8.20629 12.7033 7.7256 13.0972 7.10793C13.491 6.49026 13.6842 5.76586 13.6501 5.03408C13.6501 2.76408 12.2301 1.20408 8.78011 1.20408H0.860107V16.3441ZM9.36011 5.81408C9.36011 6.85408 8.72011 7.37408 7.29011 7.37408H5.00011V4.25408H7.30011C8.73011 4.25408 9.38011 4.77408 9.38011 5.81408H9.36011ZM9.82011 11.6641C9.82011 12.7641 9.17011 13.2241 7.68011 13.2241H5.00011V10.0441H7.73011C9.16011 10.0441 9.81011 10.5641 9.81011 11.6641H9.82011ZM25.6801 16.3441H30.0301L24.7701 1.14408H19.3001L14.0401 16.3441H18.2601L19.0401 13.8741H24.9501L25.6701 16.3441H25.6801ZM21.9801 4.51408L23.8601 10.6941H20.0301L21.9801 4.51408ZM36.6601 16.6141C40.7601 16.6141 43.3601 14.6541 43.3601 11.6041C43.3601 9.13408 41.7301 7.83408 39.1301 7.30408L35.8201 6.66408C34.5201 6.40408 34.1201 6.01408 34.1201 5.29408C34.1201 4.58408 34.9101 3.93408 36.2701 3.93408C37.8301 3.93408 38.9401 4.58408 39.0001 5.94408H43.1001C43.1001 2.30408 40.0301 0.884082 36.2601 0.884082C32.6201 0.884082 29.9601 2.70408 29.9601 5.63408C29.9601 8.10408 31.5801 9.40408 34.1801 9.92408L37.5001 10.5741C38.8001 10.8341 39.1901 11.2241 39.1901 11.9341C39.1901 12.9141 38.2801 13.4341 36.7901 13.4341C35.0901 13.4341 33.8601 12.5841 33.7901 10.9641H29.6901C29.8301 14.5341 32.1001 16.6141 36.6501 16.6141H36.6601ZM44.5901 16.3441H48.7501V1.14408H44.5901V16.3441ZM54.1401 8.74408C54.1401 6.20408 55.5101 4.32408 57.7801 4.32408C59.6601 4.32408 60.8301 5.42408 61.0901 6.72408H65.4501C65.0501 2.76408 61.6801 0.814082 57.8501 0.814082C52.8501 0.814082 49.8501 3.93408 49.8501 8.67408C49.8501 13.4241 52.7801 16.5441 57.8501 16.5441C61.7501 16.5441 65.1201 14.6541 65.5101 10.6241H61.1601C60.9001 11.9941 59.7901 13.0241 57.8501 13.0241C55.5101 13.1641 54.1501 11.2741 54.1501 8.74408H54.1401ZM74.7401 0.684082H71.3601L64.8601 18.6841H68.2401L74.7401 0.684082ZM90.4001 8.74408C90.4001 4.44408 88.0601 1.14408 82.0801 1.14408H75.7201V16.3441H82.0801C88.0601 16.3441 90.4001 13.0341 90.4001 8.74408ZM86.1101 8.74408C86.1101 11.7341 84.4201 12.8441 82.0801 12.8441H79.9401V4.64408H82.0801C84.4201 4.64408 86.1101 5.74408 86.1101 8.74408ZM91.5101 16.3441H103.53V12.9041H95.6001V10.3041H102.55V6.98408H95.6001V4.64408H103.33V1.14408H91.5101V16.3441ZM117.82 6.46408C117.82 2.63408 115.35 1.20408 111.59 1.20408H105.02V16.4041H109.18V11.7341H111.65C115.35 11.7341 117.82 10.3041 117.82 6.46408ZM113.54 6.46408C113.54 7.96408 112.82 8.54408 111.13 8.54408H109.12V4.32408H111.13C112.82 4.32408 113.53 4.97408 113.53 6.46408H113.54ZM118.47 4.71408H123.28V16.3441H127.44V4.71408H132.24V1.13408H118.47V4.71408ZM133.1 16.0841C132.483 16.0841 131.88 15.9011 131.367 15.5583C130.854 15.2154 130.454 14.7282 130.218 14.1581C129.981 13.5879 129.92 12.9606 130.04 12.3554C130.16 11.7502 130.458 11.1942 130.894 10.7579C131.33 10.3216 131.886 10.0244 132.491 9.90403C133.097 9.78365 133.724 9.84543 134.294 10.0816C134.864 10.3177 135.351 10.7176 135.694 11.2307C136.037 11.7438 136.22 12.347 136.22 12.9641C136.21 13.7883 135.878 14.5759 135.295 15.1588C134.712 15.7417 133.924 16.0737 133.1 16.0841ZM133.1 10.3641C132.411 10.3641 131.749 10.638 131.262 11.1256C130.774 11.6132 130.5 12.2745 130.5 12.9641C130.5 13.6536 130.774 14.315 131.262 14.8026C131.749 15.2902 132.411 15.5641 133.1 15.5641C133.79 15.5641 134.451 15.2902 134.939 14.8026C135.426 14.315 135.7 13.6536 135.7 12.9641C135.7 12.2745 135.426 11.6132 134.939 11.1256C134.451 10.638 133.79 10.3641 133.1 10.3641Z" fill="black"/>
<path d="M133.42 11.864H132.51V12.904H133.41C133.74 12.904 133.87 12.704 133.87 12.384C133.87 12.054 133.67 11.864 133.42 11.864ZM133.35 11.344C134.13 11.344 134.52 11.664 134.52 12.384C134.52 12.774 134.32 13.094 133.94 13.224L134.72 14.394H133.94L133.22 13.354H132.44V14.394H131.73V11.344H133.35Z" fill="black"/>
</g>
</g>
<defs>
<clipPath id="clip0_3127_703">
<rect width="137" height="18" fill="white" transform="translate(0 0.684082)"/>
</clipPath>
</defs>
</svg>
