<svg width="102" height="19" viewBox="0 0 102 19" fill="none" xmlns="http://www.w3.org/2000/svg">
<g clip-path="url(#clip0_3127_714)">
<mask id="mask0_3127_714" style="mask-type:luminance" maskUnits="userSpaceOnUse" x="0" y="0" width="102" height="19">
<path d="M0.840088 0.684082H101.61V18.6841H0.840088V0.684082Z" fill="white"/>
</mask>
<g mask="url(#mask0_3127_714)">
<path d="M21.18 5.71408C20.321 5.69787 19.4675 5.85476 18.6705 6.17543C17.8734 6.49609 17.1491 6.97394 16.5407 7.58051C15.9322 8.18708 15.4522 8.90994 15.129 9.70601C14.8059 10.5021 14.6464 11.3551 14.66 12.2141C14.6406 13.0733 14.7964 13.9275 15.1178 14.7245C15.4392 15.5216 15.9196 16.2448 16.5297 16.8502C17.1397 17.4555 17.8666 17.9303 18.6661 18.2456C19.4656 18.5609 20.321 18.7101 21.18 18.6841C22.0431 18.7071 22.902 18.5553 23.7049 18.2377C24.5078 17.9201 25.2382 17.4433 25.852 16.836C26.4658 16.2287 26.9504 15.5036 27.2766 14.7041C27.6028 13.9046 27.7638 13.0474 27.75 12.1841C27.764 11.3221 27.6028 10.4662 27.2763 9.66834C26.9498 8.87045 26.4647 8.14715 25.8504 7.54224C25.2362 6.93733 24.5055 6.4634 23.7027 6.14915C22.8999 5.83491 22.0417 5.6869 21.18 5.71408ZM21.2 16.0041C19.12 16.0041 17.6 14.3841 17.6 12.2041C17.6 10.0041 19.1 8.39408 21.18 8.39408C23.28 8.39408 24.82 10.0341 24.82 12.2141C24.82 14.3841 23.29 16.0041 21.2 16.0041ZM28.55 8.53408H30.37V18.4341H33.27V5.96408H28.55V8.54408V8.53408ZM7.33999 8.39408C8.05487 8.38484 8.75342 8.60802 9.33052 9.03003C9.90762 9.45203 10.3321 10.05 10.54 10.7341H13.62C13.3601 9.28178 12.5826 7.97289 11.4316 7.04989C10.2806 6.12688 8.83408 5.65231 7.35999 5.71408C6.50101 5.69787 5.64755 5.85476 4.85049 6.17543C4.05344 6.49609 3.3291 6.97394 2.72067 7.58051C2.11223 8.18708 1.63215 8.90994 1.30904 9.70601C0.985935 10.5021 0.826415 11.3551 0.839992 12.2141C0.820591 13.0733 0.976356 13.9275 1.2978 14.7245C1.61923 15.5216 2.09961 16.2448 2.70965 16.8502C3.3197 17.4555 4.04662 17.9303 4.84612 18.2456C5.64563 18.5609 6.50096 18.7101 7.35999 18.6841C8.83185 18.731 10.2714 18.2465 11.4154 17.3192C12.5594 16.3919 13.3313 15.0838 13.59 13.6341H10.54C10.3413 14.3221 9.92297 14.9262 9.34877 15.3542C8.77457 15.7821 8.07609 16.0104 7.35999 16.0041C5.25999 16.0041 3.77999 14.3841 3.77999 12.2041C3.77999 10.0041 5.22999 8.39408 7.33999 8.39408ZM83.82 10.9941L81.68 10.6941C80.66 10.5441 79.94 10.2041 79.94 9.40408C79.94 8.53408 80.88 8.10408 82.17 8.10408C83.57 8.10408 84.47 8.70408 84.67 9.70408H87.47C87.16 7.18408 85.22 5.70408 82.24 5.70408C79.16 5.70408 77.13 7.28408 77.13 9.50408C77.13 11.6341 78.46 12.8641 81.15 13.2441L83.28 13.5641C84.32 13.7041 84.91 14.1141 84.91 14.8941C84.91 15.8841 83.89 16.2941 82.48 16.2941C80.76 16.2941 79.79 15.5941 79.65 14.5241H76.79C77.05 16.9741 78.97 18.6841 82.46 18.6841C85.63 18.6841 87.74 17.2341 87.74 14.7441C87.74 12.5241 86.22 11.3641 83.82 11.0041V10.9941ZM31.82 0.814082C31.5744 0.804458 31.3294 0.845239 31.1002 0.933911C30.8709 1.02258 30.6623 1.15727 30.4871 1.32966C30.3119 1.50205 30.1738 1.7085 30.0814 1.93628C29.9891 2.16407 29.9443 2.40835 29.95 2.65408C29.95 3.71408 30.75 4.48408 31.82 4.48408C32.0647 4.49364 32.3089 4.45315 32.5374 4.36509C32.766 4.27703 32.9742 4.14325 33.1492 3.97193C33.3243 3.80062 33.4625 3.59538 33.5555 3.36878C33.6485 3.14218 33.6943 2.89898 33.69 2.65408C33.697 2.40752 33.6533 2.16214 33.5616 1.93318C33.4698 1.70422 33.332 1.49655 33.1567 1.32307C32.9813 1.1496 32.7722 1.01401 32.5422 0.924735C32.3123 0.835456 32.0665 0.794389 31.82 0.804082V0.814082ZM74.51 10.2341C74.51 7.53408 72.86 5.72408 69.37 5.72408C66.07 5.72408 64.23 7.38408 63.87 9.94408H66.75C66.9 8.95408 67.67 8.14408 69.32 8.14408C70.8 8.14408 71.52 8.78408 71.52 9.58408C71.52 10.6241 70.19 10.8841 68.54 11.0641C66.31 11.3041 63.55 12.0741 63.55 14.9741C63.55 17.2241 65.22 18.6741 67.89 18.6741C69.98 18.6741 71.29 17.8041 71.94 16.4241C72.04 17.6541 72.96 18.4541 74.24 18.4541H75.94V15.8641H74.5V10.2241L74.51 10.2341ZM71.65 13.3741C71.65 15.0441 70.19 16.2741 68.42 16.2741C67.33 16.2741 66.42 15.8241 66.42 14.8541C66.42 13.6241 67.89 13.2841 69.25 13.1341C70.55 13.0141 71.28 12.7341 71.65 12.1741V13.3741ZM56.2 5.71408C54.57 5.71408 53.21 6.38408 52.25 7.51408V0.684082H49.34V18.4441H52.2V16.8041C52.6801 17.4008 53.2898 17.8802 53.9829 18.2059C54.676 18.5317 55.4342 18.6952 56.2 18.6841C59.69 18.6841 62.33 15.9341 62.33 12.2141C62.33 8.48408 59.63 5.71408 56.2 5.71408ZM55.76 16.0041C53.68 16.0041 52.15 14.3841 52.15 12.2041C52.15 10.0341 53.7 8.39408 55.78 8.39408C57.89 8.39408 59.38 10.0141 59.38 12.2141C59.38 14.3841 57.84 16.0041 55.76 16.0041ZM42.39 5.70408C40.49 5.70408 39.26 6.48408 38.53 7.57408V5.95408H35.65V18.4441H38.55V11.6441C38.55 9.74408 39.77 8.39408 41.56 8.39408C43.24 8.39408 44.28 9.57408 44.28 11.2941V18.4441H47.18V11.0741C47.18 7.93408 45.57 5.71408 42.38 5.71408L42.39 5.70408ZM101.61 11.8041C101.638 10.992 101.498 10.1828 101.199 9.42732C100.9 8.6718 100.448 7.98621 99.8718 7.41351C99.2954 6.84082 98.6068 6.39337 97.8494 6.09921C97.0919 5.80506 96.2819 5.67054 95.47 5.70408C94.6121 5.68336 93.759 5.83755 92.9627 6.15726C92.1664 6.47697 91.4435 6.9555 90.8381 7.56367C90.2328 8.17185 89.7576 8.89694 89.4416 9.69473C89.1255 10.4925 88.9753 11.3463 89 12.2041C88.9763 13.0649 89.1291 13.9214 89.4489 14.721C89.7687 15.5205 90.2487 16.2462 90.8595 16.8532C91.4703 17.4602 92.1989 17.9358 93.0004 18.2507C93.8019 18.5656 94.6593 18.7131 95.52 18.6841C98.55 18.6841 100.92 16.8941 101.53 14.3641H98.5C98.07 15.4641 97 16.1041 95.57 16.1041C93.7 16.1041 92.3 14.9441 91.98 12.9041H101.61V11.8041ZM92.15 10.8341C92.3067 10.0865 92.7209 9.41769 93.3204 8.94434C93.9198 8.47099 94.6665 8.22315 95.43 8.24408C97.07 8.24408 98.33 9.18408 98.63 10.8341H92.15Z" fill="black"/>
</g>
</g>
<defs>
<clipPath id="clip0_3127_714">
<rect width="102" height="18" fill="white" transform="translate(0 0.684082)"/>
</clipPath>
</defs>
</svg>
