<svg width="131" height="19" viewBox="0 0 131 19" fill="none" xmlns="http://www.w3.org/2000/svg">
<path d="M4.44993 15.824H7.50993C9.86993 15.824 11.0599 15.044 11.0599 13.534C11.0599 12.064 9.78993 11.254 7.31993 11.254H4.44993V15.824ZM4.44993 4.81403V9.05403H7.13993C9.14993 9.05403 10.1999 8.30403 10.1999 6.93403C10.1999 5.53403 9.11993 4.81403 7.09993 4.81403H4.45993H4.44993ZM0.179932 18.104V15.824H1.97993V4.81403H0.179932V2.52403H7.37993C10.6799 2.52403 12.6899 4.05403 12.6899 6.72403C12.7071 7.44958 12.4937 8.16188 12.0804 8.75845C11.6671 9.35503 11.0752 9.80514 10.3899 10.044C12.2399 10.554 13.5499 11.874 13.5499 13.674C13.5499 16.514 11.3499 18.104 7.74993 18.104H0.179932ZM26.5999 9.98403C26.3399 9.08403 25.6599 8.54403 24.7799 8.54403C22.7099 8.54403 20.7499 10.074 20.7499 12.864V15.824H24.7299V18.104H15.8599V15.824H18.3899V8.94403H16.3999V6.66403H20.7199V8.58403C21.1364 7.8544 21.746 7.2537 22.4817 6.84794C23.2173 6.44218 24.0506 6.24706 24.8899 6.28403C27.0899 6.28403 28.4599 7.54403 28.8599 9.33403L26.5999 9.98403ZM38.6899 13.484C37.7449 13.1698 36.7559 13.0078 35.7599 13.004C34.2599 13.004 32.8099 13.484 32.8099 14.854C32.8099 15.874 33.7199 16.354 34.9799 16.354C36.7299 16.354 38.6799 15.414 38.6799 13.804V13.484H38.6899ZM38.6899 11.444V10.794C38.6899 9.19403 37.3999 8.51403 35.9999 8.51403C34.6899 8.51403 33.5599 9.05403 32.6499 9.88403L31.0899 8.19403C32.1599 7.19403 33.6899 6.29403 35.9999 6.29403C38.8799 6.29403 41.0999 7.81403 41.0999 10.714V15.814H42.7699V18.104H38.6899V16.884C38.0699 17.884 36.4099 18.464 34.7699 18.464C32.3999 18.464 30.3699 17.264 30.3699 14.864C30.3699 12.054 33.1299 10.974 35.6499 10.974C36.8899 10.974 37.9099 11.214 38.6899 11.434V11.444ZM52.6999 4.38403H50.0499V0.884033H52.7099V4.38403H52.6999ZM57.1099 15.824V18.104H45.5599V15.824H50.3399V8.94403H46.6999V6.66403H52.7199V15.824H57.1199H57.1099ZM59.9599 15.824H61.6999V8.94403H60.0599V6.66403H64.0399V8.14403C64.7399 7.01403 66.1899 6.28403 67.9599 6.28403C70.5099 6.28403 72.3399 7.89403 72.3399 10.504V15.824H74.0799V18.104H68.1499V15.824H69.9699V11.144C69.9699 9.16403 68.7699 8.59403 67.6699 8.59403C65.8699 8.59403 64.0699 9.94403 64.0699 12.004V15.824H65.8899V18.104H59.9599V15.824ZM77.3299 8.94403H74.3499V6.66403H77.3299V2.52403H79.6899V6.66403H85.2499V8.94403H79.6999V13.744C79.6999 15.524 80.9399 16.244 82.3599 16.244C83.6999 16.244 84.8299 15.494 85.6599 14.664L87.2499 16.304C86.6335 16.9895 85.8792 17.5371 85.0366 17.911C84.1939 18.285 83.2818 18.4768 82.3599 18.474C79.4899 18.474 77.3399 16.894 77.3399 13.834V8.94403H77.3299ZM100.13 9.98403C99.8599 9.08403 99.1899 8.54403 98.2999 8.54403C96.2399 8.54403 94.2799 10.074 94.2799 12.864V15.824H98.2499V18.104H89.3899V15.824H91.9099V8.94403H89.9299V6.66403H94.2499V8.58403C94.6656 7.85595 95.2736 7.25627 96.0074 6.8506C96.7411 6.44493 97.5723 6.24893 98.4099 6.28403C100.61 6.28403 101.98 7.54403 102.39 9.33403L100.13 9.98403ZM106.5 11.204H113.53C113.362 10.4253 112.932 9.72795 112.311 9.22902C111.69 8.7301 110.916 8.45998 110.12 8.46403C109.292 8.43517 108.48 8.69166 107.819 9.19052C107.158 9.68938 106.689 10.4003 106.49 11.204H106.5ZM116.03 16.354C114.84 17.594 112.75 18.474 110.41 18.474C106.57 18.474 103.89 15.904 103.89 12.374C103.89 8.87403 106.49 6.28403 110.12 6.28403C113.72 6.28403 116.24 9.05403 116.24 12.814V13.214H106.39C106.79 15.114 108.37 16.274 110.44 16.274C112.16 16.274 113.64 15.574 114.44 14.694L116.03 16.354ZM121.18 11.204H128.22C128.052 10.4253 127.622 9.72795 127.001 9.22902C126.38 8.7301 125.606 8.45998 124.81 8.46403C123.982 8.43517 123.17 8.69166 122.509 9.19052C121.848 9.68938 121.379 10.4003 121.18 11.204ZM130.71 16.354C129.53 17.594 127.44 18.474 125.11 18.474C121.26 18.474 118.58 15.904 118.58 12.374C118.58 8.87403 121.18 6.28403 124.81 6.28403C128.41 6.28403 130.93 9.05403 130.93 12.814V13.214H121.07C121.47 15.114 123.07 16.274 125.13 16.274C126.85 16.274 128.33 15.574 129.13 14.694L130.72 16.354H130.71Z" fill="black"/>
</svg>
