<svg width="91" height="19" viewBox="0 0 91 19" fill="none" xmlns="http://www.w3.org/2000/svg">
<g clip-path="url(#clip0_3127_688)">
<mask id="mask0_3127_688" style="mask-type:luminance" maskUnits="userSpaceOnUse" x="0" y="0" width="91" height="19">
<path d="M0 0.684082H90.91V18.6841H0V0.684082Z" fill="white"/>
</mask>
<g mask="url(#mask0_3127_688)">
<path fill-rule="evenodd" clip-rule="evenodd" d="M88.6201 14.3642C88.6701 14.9942 89.1701 15.7842 90.0401 15.7842H90.5501C90.7501 15.7842 90.9101 15.6242 90.9101 15.4342V4.2542C90.905 4.16223 90.8648 4.07572 90.7979 4.01247C90.7309 3.94923 90.6422 3.91406 90.5501 3.9142H88.9801C88.888 3.91406 88.7993 3.94923 88.7324 4.01247C88.6654 4.07572 88.6252 4.16223 88.6201 4.2542V5.1542C88.117 4.59366 87.4949 4.15277 86.7993 3.86381C86.1037 3.57485 85.3523 3.44515 84.6001 3.4842C82.9346 3.4842 81.3372 4.14584 80.1595 5.32357C78.9818 6.5013 78.3201 8.09864 78.3201 9.7642C78.3201 11.4298 78.9818 13.0271 80.1595 14.2048C81.3372 15.3826 82.9346 16.0442 84.6001 16.0442C86.1201 16.0442 87.7801 15.4442 88.6001 14.3642H88.6201ZM84.6201 13.8442C82.4101 13.8442 80.6201 12.0142 80.6201 9.7642C80.6135 9.23282 80.7118 8.70535 80.9094 8.21202C81.107 7.71869 81.3999 7.26918 81.7715 6.88925C82.1431 6.50932 82.5859 6.20643 83.0748 5.99793C83.5636 5.78943 84.0887 5.67942 84.6201 5.6742C86.8201 5.6742 88.6001 7.5042 88.6001 9.7642C88.6108 10.834 88.1967 11.8643 87.4487 12.6292C86.7007 13.3941 85.6799 13.831 84.6101 13.8442H84.6201ZM76.3401 14.7442V8.9642C76.3401 5.7042 74.2801 3.5042 71.0101 3.5042C69.4401 3.5042 68.1601 4.4042 67.7101 5.1942C67.6101 4.5842 67.2901 3.9442 66.2901 3.9442H65.7801C65.5801 3.9442 65.4201 4.1042 65.4201 4.3042V15.4742C65.4301 15.6742 65.5901 15.8142 65.7801 15.8142H67.4201L67.4501 15.8042L67.4901 15.7842L67.5301 15.7642H67.5501C67.5645 15.7519 67.5778 15.7385 67.5901 15.7242C67.6567 15.6616 67.6962 15.5755 67.7001 15.4842H67.7101V8.8842C67.7101 8.46791 67.7921 8.0557 67.9514 7.67109C68.1107 7.28649 68.3442 6.93703 68.6386 6.64267C68.933 6.34831 69.2824 6.11481 69.667 5.9555C70.0516 5.79619 70.4638 5.7142 70.8801 5.7142C71.2964 5.7142 71.7086 5.79619 72.0932 5.9555C72.4778 6.11481 72.8273 6.34831 73.1216 6.64267C73.416 6.93703 73.6495 7.28649 73.8088 7.67109C73.9681 8.0557 74.0501 8.46791 74.0501 8.8842V15.4742C74.0601 15.6742 74.2201 15.8142 74.4101 15.8142H76.0501L76.0801 15.8042L76.1201 15.7842C76.1301 15.7842 76.1401 15.7842 76.1501 15.7642H76.1801L76.2201 15.7242C76.2859 15.661 76.3252 15.5752 76.3301 15.4842H76.3401V14.7442ZM59.9401 14.3642C60.0001 14.9942 60.5001 15.7842 61.3701 15.7842H61.8701C62.0701 15.7842 62.2301 15.6242 62.2301 15.4342V4.2542C62.225 4.16223 62.1848 4.07572 62.1179 4.01247C62.0509 3.94923 61.9622 3.91406 61.8701 3.9142H60.3001C60.208 3.91406 60.1193 3.94923 60.0524 4.01247C59.9854 4.07572 59.9452 4.16223 59.9401 4.2542V5.1542C59.4381 4.59501 58.8176 4.15492 58.1239 3.86601C57.4301 3.5771 56.6807 3.44666 55.9301 3.4842C54.2646 3.4842 52.6672 4.14584 51.4895 5.32357C50.3118 6.5013 49.6501 8.09864 49.6501 9.7642C49.6501 11.4298 50.3118 13.0271 51.4895 14.2048C52.6672 15.3826 54.2646 16.0442 55.9301 16.0442C57.4501 16.0442 59.1201 15.4442 59.9401 14.3642ZM55.9401 13.8442C53.7401 13.8442 51.9401 12.0142 51.9401 9.7642C51.9335 9.23282 52.0318 8.70535 52.2294 8.21202C52.427 7.71869 52.7199 7.26918 53.0915 6.88925C53.4631 6.50932 53.9059 6.20643 54.3948 5.99793C54.8836 5.78943 55.4087 5.67942 55.9401 5.6742C58.1401 5.6742 59.9301 7.5042 59.9301 9.7642C59.9354 10.2947 59.8361 10.8211 59.638 11.3133C59.4398 11.8055 59.1466 12.2538 58.7752 12.6327C58.4037 13.0116 57.9613 13.3135 57.4731 13.5214C56.985 13.7293 56.4607 13.839 55.9301 13.8442H55.9401ZM40.3401 12.7642C41.304 13.4527 42.4556 13.8296 43.6401 13.8442C44.6901 13.8442 45.7801 13.3042 45.7801 12.3442C45.7801 11.0842 43.4101 10.8842 41.9301 10.3842C40.4301 9.8842 39.1601 8.8342 39.1601 7.1442C39.1601 4.5442 41.4601 3.4842 43.6201 3.4842C44.9801 3.4842 46.3901 3.9342 47.3001 4.5742C47.6101 4.8142 47.4201 5.0842 47.4201 5.0842L46.5501 6.3342C46.4501 6.4742 46.2801 6.5942 46.0401 6.4342C45.7901 6.2842 44.9301 5.6742 43.6201 5.6742C42.3001 5.6742 41.5201 6.2842 41.5201 7.0342C41.5201 7.9342 42.5401 8.2242 43.7401 8.5342C45.8401 9.0942 48.1401 9.7742 48.1401 12.3542C48.1401 14.6342 46.0001 16.0542 43.6401 16.0542C41.8601 16.0542 40.3401 15.5342 39.0601 14.5942C38.7901 14.3342 38.9801 14.0942 38.9801 14.0942L39.8501 12.8442C40.0201 12.6142 40.2501 12.6942 40.3501 12.7642H40.3401ZM34.2901 14.3642C34.3401 14.9942 34.8401 15.7842 35.7101 15.7842H36.2201C36.4201 15.7842 36.5801 15.6242 36.5801 15.4342V4.2542C36.575 4.16223 36.5348 4.07572 36.4679 4.01247C36.4009 3.94923 36.3122 3.91406 36.2201 3.9142H34.6501C34.558 3.91406 34.4693 3.94923 34.4024 4.01247C34.3354 4.07572 34.2952 4.16223 34.2901 4.2542V5.1542C33.7881 4.59501 33.1676 4.15492 32.4739 3.86601C31.7801 3.5771 31.0307 3.44666 30.2801 3.4842C28.6146 3.4842 27.0172 4.14584 25.8395 5.32357C24.6618 6.5013 24.0001 8.09864 24.0001 9.7642C24.0001 11.4298 24.6618 13.0271 25.8395 14.2048C27.0172 15.3826 28.6146 16.0442 30.2801 16.0442C31.8001 16.0442 33.4601 15.4442 34.2801 14.3642H34.2901ZM30.2901 13.8442C28.0801 13.8442 26.2901 12.0142 26.2901 9.7642C26.2835 9.23282 26.3818 8.70535 26.5794 8.21202C26.777 7.71869 27.0699 7.26918 27.4415 6.88925C27.8131 6.50932 28.2559 6.20643 28.7448 5.99793C29.2336 5.78943 29.7587 5.67942 30.2901 5.6742C32.4901 5.6742 34.2801 7.5042 34.2801 9.7642C34.2854 10.2947 34.1861 10.8211 33.988 11.3133C33.7898 11.8055 33.4966 12.2538 33.1252 12.6327C32.7537 13.0116 32.3113 13.3135 31.8231 13.5214C31.335 13.7293 30.8107 13.839 30.2801 13.8442H30.2901ZM15.2001 10.1842C14.0796 10.1842 13.0049 10.6293 12.2126 11.4217C11.4202 12.214 10.9751 13.2887 10.9751 14.4092C10.9751 15.5297 11.4202 16.6044 12.2126 17.3967C13.0049 18.1891 14.0796 18.6342 15.2001 18.6342C16.3207 18.6342 17.3953 18.1891 18.1876 17.3967C18.98 16.6044 19.4251 15.5297 19.4251 14.4092C19.4251 13.2887 18.98 12.214 18.1876 11.4217C17.3953 10.6293 16.3207 10.1842 15.2001 10.1842ZM4.22012 10.1842C3.09958 10.1842 2.02493 10.6293 1.23259 11.4217C0.44025 12.214 -0.00488281 13.2887 -0.00488281 14.4092C-0.00488281 15.5297 0.44025 16.6044 1.23259 17.3967C2.02493 18.1891 3.09958 18.6342 4.22012 18.6342C5.33933 18.6342 6.4127 18.1896 7.20411 17.3982C7.99551 16.6068 8.44012 15.5334 8.44012 14.4142C8.44012 13.295 7.99551 12.2216 7.20411 11.4302C6.4127 10.6388 5.33933 10.1942 4.22012 10.1942V10.1842ZM13.9401 4.9042C13.9401 6.02474 13.495 7.09938 12.7026 7.89173C11.9103 8.68407 10.8357 9.1292 9.71512 9.1292C8.59458 9.1292 7.51993 8.68407 6.72759 7.89173C5.93525 7.09938 5.49012 6.02474 5.49012 4.9042C5.49012 3.78366 5.93525 2.70901 6.72759 1.91667C7.51993 1.12433 8.59458 0.679199 9.71512 0.679199C10.8357 0.679199 11.9103 1.12433 12.7026 1.91667C13.495 2.70901 13.9401 3.78366 13.9401 4.9042Z" fill="black"/>
</g>
</g>
<defs>
<clipPath id="clip0_3127_688">
<rect width="91" height="18" fill="white" transform="translate(0 0.684082)"/>
</clipPath>
</defs>
</svg>
