<svg width="92" height="19" viewBox="0 0 92 19" fill="none" xmlns="http://www.w3.org/2000/svg">
<g clip-path="url(#clip0_3127_728)">
<mask id="mask0_3127_728" style="mask-type:luminance" maskUnits="userSpaceOnUse" x="0" y="0" width="92" height="19">
<path d="M0.430054 0.684082H91.8501V18.6841H0.430054V0.684082Z" fill="white"/>
</mask>
<g mask="url(#mask0_3127_728)">
<path d="M11.0301 4.06408L5.73005 7.44408L11.0301 10.8341L5.73005 14.2141L0.430054 10.8141L5.73005 7.43408L0.430054 4.06408L5.73005 0.684082L11.0301 4.06408ZM5.70005 15.3041L11.0001 11.9241L16.3001 15.3041L11.0001 18.6841L5.70005 15.3041ZM11.0301 10.8041L16.3301 7.43408L11.0301 4.06408L16.3001 0.684082L21.6001 4.06408L16.3001 7.44408L21.6001 10.8341L16.3001 14.2141L11.0301 10.8141V10.8041ZM25.7701 4.06408H30.0501C32.7901 4.06408 35.0501 5.64408 35.0501 9.26408V10.0141C35.0501 13.6541 32.9301 15.2941 30.1401 15.2941H25.7701V4.06408ZM28.1701 6.10408V13.2441H30.0001C31.5501 13.2441 32.6001 12.2341 32.6001 9.97408V9.37408C32.6001 7.12408 31.5001 6.10408 29.9201 6.10408H28.1601H28.1701ZM36.3201 6.21408H38.2401L38.5401 8.32408C38.9101 6.89408 39.8401 6.12408 41.5401 6.12408H42.1301V8.54408H41.1401C39.2001 8.54408 38.7201 9.22408 38.7201 11.1441V15.3241H36.3501V6.22408H36.3201V6.21408ZM42.6101 10.9541V10.6841C42.6101 7.64408 44.5501 5.98408 47.2101 5.98408C49.9101 5.98408 51.8101 7.64408 51.8101 10.6841V10.9441C51.8101 13.9341 49.9601 15.5441 47.2101 15.5441C44.2701 15.5141 42.6101 13.9441 42.6101 10.9441V10.9541ZM49.3801 10.9241V10.6841C49.3801 8.98408 48.5301 7.98408 47.1801 7.98408C45.8501 7.98408 44.9801 8.91408 44.9801 10.6841V10.9141C44.9801 12.5441 45.8201 13.4841 47.1801 13.4841C48.5301 13.4541 49.3801 12.5441 49.3801 10.9141V10.9241ZM53.0501 6.22408H55.0201L55.2501 7.92408C55.4833 7.32892 55.8972 6.82176 56.4334 6.47382C56.9697 6.12588 57.6015 5.95461 58.2401 5.98408C60.5501 5.98408 62.0801 7.65408 62.0801 10.7341V10.9841C62.0801 13.9841 60.3801 15.5541 58.2401 15.5541C56.8001 15.5541 55.8201 14.9041 55.3401 13.8641V18.4641H53.0201L53.0501 6.21408V6.22408ZM59.6701 10.9241V10.7241C59.6701 8.91408 58.7401 8.02408 57.5001 8.02408C56.1701 8.02408 55.3001 9.02408 55.3001 10.7241V10.8941C55.3001 12.5041 56.1401 13.5141 57.4701 13.5141C58.8301 13.4941 59.6701 12.6141 59.6701 10.9141V10.9241ZM65.5701 13.6341L65.3701 15.3041H63.3501V3.17408H65.6601V7.82408C66.1701 6.63408 67.1901 5.98408 68.6201 5.98408C70.8001 6.01408 72.4101 7.51408 72.4101 10.5341V10.8141C72.4101 13.8341 70.8801 15.5541 68.5701 15.5541C67.0401 15.5241 66.0501 14.8141 65.5701 13.6341ZM69.9701 10.8141V10.5841C69.9701 8.92408 69.0701 7.98408 67.8001 7.98408C66.5001 7.98408 65.6001 9.03408 65.6001 10.6141V10.8141C65.6001 12.5041 66.47 13.4941 67.7701 13.4941C69.1701 13.4941 69.9701 12.6241 69.9701 10.8141ZM73.4201 10.9541V10.6841C73.4201 7.64408 75.37 5.98408 78.0201 5.98408C80.72 5.98408 82.6201 7.64408 82.6201 10.6841V10.9441C82.6201 13.9341 80.7501 15.5441 78.0201 15.5441C75.09 15.5141 73.4201 13.9441 73.4201 10.9441V10.9541ZM80.2201 10.9241V10.6841C80.2201 8.98408 79.36 7.98408 78.0201 7.98408C76.69 7.98408 75.8101 8.91408 75.8101 10.6841V10.9141C75.8101 12.5441 76.6601 13.4841 78.0101 13.4841C79.3701 13.4541 80.2101 12.5441 80.2101 10.9141L80.2201 10.9241ZM85.7201 10.5841L82.5201 6.21408H85.2601L87.1001 8.94408L88.9601 6.21408H91.6601L88.4301 10.5541L91.84 15.3041H89.1601L87.0801 12.2841L85.0501 15.3041H82.2501L85.7201 10.5841Z" fill="black"/>
</g>
</g>
<defs>
<clipPath id="clip0_3127_728">
<rect width="92" height="18" fill="white" transform="translate(0 0.684082)"/>
</clipPath>
</defs>
</svg>
