<svg width="122" height="99" viewBox="0 0 122 99" fill="none" xmlns="http://www.w3.org/2000/svg">
<g clip-path="url(#clip0_3105_1683)" filter="url(#filter0_dd_3105_1683)">
<path d="M37.2793 66.5C47.927 66.5 56.5587 66.0994 56.5587 65.6052C56.5587 65.111 47.927 64.7104 37.2793 64.7104C26.6317 64.7104 18 65.111 18 65.6052C18 66.0994 26.6317 66.5 37.2793 66.5Z" fill="#E6E6E6"/>
<path d="M57.6681 16.5C57.4679 16.5002 57.2759 16.5796 57.1343 16.7207C56.9927 16.8618 56.9131 17.0531 56.9128 17.2527V45.1555C56.9131 45.355 56.9927 45.5464 57.1343 45.6875C57.2759 45.8286 57.4678 45.908 57.6681 45.9082H97.2447C97.4449 45.908 97.6369 45.8286 97.7785 45.6875C97.9201 45.5464 97.9997 45.355 97.9999 45.1555V17.2527C97.9997 17.0531 97.9201 16.8618 97.7785 16.7207C97.6369 16.5796 97.4449 16.5002 97.2447 16.5H57.6681Z" fill="#E6E6E6"/>
<path d="M57.7625 45.0614H97.1502V17.3467H57.7625V45.0614Z" fill="white"/>
<path d="M46.5507 51.9687C46.3089 51.9687 46.0744 52.0515 45.8865 52.2031C45.6985 52.3547 45.5685 52.5661 45.5181 52.8017H46.9906V56.4847H45.5181C45.5724 56.739 45.7193 56.9642 45.9304 57.117C46.1415 57.2697 46.4019 57.3392 46.6613 57.3119C46.9208 57.2847 47.1609 57.1627 47.3355 56.9695C47.51 56.7762 47.6066 56.5255 47.6066 56.2655V53.021C47.6066 52.8828 47.5793 52.7459 47.5262 52.6183C47.4731 52.4906 47.3954 52.3746 47.2973 52.2769C47.1993 52.1792 47.0829 52.1017 46.9548 52.0488C46.8266 51.9959 46.6893 51.9687 46.5507 51.9687Z" fill="#3F3D56"/>
<path d="M34.6785 45.5235C34.1752 45.5241 33.6926 45.7236 33.3367 46.0783C32.9808 46.4329 32.7806 46.9138 32.78 47.4154V61.9586C32.7806 62.4602 32.9808 62.9411 33.3367 63.2958C33.6926 63.6505 34.1752 63.85 34.6785 63.8505H43.9044C44.4077 63.85 44.8903 63.6505 45.2462 63.2958C45.6021 62.9411 45.8023 62.4602 45.8028 61.9586V47.4154C45.8023 46.9138 45.6021 46.4329 45.2462 46.0783C44.8903 45.7236 44.4077 45.5241 43.9044 45.5235H34.6785Z" fill="#3F3D56"/>
<path d="M33.704 65.5605C34.2386 65.5605 34.6719 65.1287 34.6719 64.5959C34.6719 64.0632 34.2386 63.6313 33.704 63.6313C33.1694 63.6313 32.7361 64.0632 32.7361 64.5959C32.7361 65.1287 33.1694 65.5605 33.704 65.5605Z" fill="#3F3D56"/>
<path d="M44.527 65.5605C45.0616 65.5605 45.4949 65.1287 45.4949 64.5959C45.4949 64.0632 45.0616 63.6313 44.527 63.6313C43.9924 63.6313 43.5591 64.0632 43.5591 64.5959C43.5591 65.1287 43.9924 65.5605 44.527 65.5605Z" fill="#3F3D56"/>
<path d="M34.9359 45.392H34.408V63.8944H34.9359V45.392Z" fill="#4D4D4D"/>
<path d="M36.4318 45.392H35.9038V63.8944H36.4318V45.392Z" fill="#4D4D4D"/>
<path d="M37.9276 45.392H37.3997V63.8944H37.9276V45.392Z" fill="#4D4D4D"/>
<path d="M39.4235 45.392H38.8955V63.8944H39.4235V45.392Z" fill="#4D4D4D"/>
<path d="M40.9193 45.392H40.3914V63.8944H40.9193V45.392Z" fill="#4D4D4D"/>
<path d="M42.4152 45.392H41.8872V63.8944H42.4152V45.392Z" fill="#4D4D4D"/>
<path d="M43.911 45.392H43.3831V63.8944H43.911V45.392Z" fill="#4D4D4D"/>
<path d="M43.7692 43.9889C44.1142 43.4042 44.2961 42.7381 44.296 42.0598H34.9469C34.9468 42.7381 35.1287 43.4042 35.4737 43.9889H33.572C33.572 45.0059 34.4338 45.8304 35.4968 45.8304H37.8524C38.2482 45.9471 38.6588 46.0062 39.0715 46.0058H40.1714C40.5841 46.0062 40.9947 45.9471 41.3905 45.8304H43.7461C44.8091 45.8304 45.6709 45.0059 45.6709 43.9889H43.7692Z" fill="#2F2E41"/>
<path d="M36.8632 57.2739C36.8806 57.4608 36.8407 57.6486 36.7488 57.8125C36.6569 57.9764 36.5174 58.1087 36.3485 58.192L36.3438 58.1946C35.4637 58.6948 34.7436 59.0875 33.889 59.0152C33.8029 59.0076 33.7197 58.9803 33.6459 58.9354C33.5721 58.8905 33.5097 58.8292 33.4636 58.7563C33.4175 58.6835 33.3888 58.601 33.3799 58.5153C33.371 58.4296 33.3821 58.343 33.4123 58.2623L34.6279 55.9585C35.334 55.1387 35.8317 55.1379 36.6957 55.827L36.8632 57.2739Z" fill="#2F2E41"/>
<path d="M41.8956 57.2739C41.8782 57.4608 41.9181 57.6486 42.01 57.8125C42.1019 57.9764 42.2415 58.1087 42.4103 58.192L42.4151 58.1946C43.2951 58.6948 44.0152 59.0875 44.8698 59.0152C44.9559 59.0076 45.0391 58.9803 45.1129 58.9354C45.1867 58.8905 45.2491 58.8292 45.2952 58.7563C45.3413 58.6835 45.37 58.601 45.3789 58.5153C45.3878 58.4296 45.3767 58.343 45.3465 58.2623L44.1309 55.9585C43.4248 55.1387 42.9272 55.1379 42.0631 55.827L41.8956 57.2739Z" fill="#2F2E41"/>
<path d="M38.3627 30.134H34.9802C34.827 30.1343 34.6777 30.0853 34.5546 29.9944C34.4315 29.9035 34.341 29.7755 34.2966 29.6293C34.1925 29.2834 34.058 28.9477 34.0559 28.6433C34.0476 27.4618 34.1065 26.7098 34.6278 26.2319C36.3648 24.9193 37.6234 25.1607 38.8074 26.5388C39.2231 27.3086 39.1164 28.4577 38.8916 29.6924C38.8693 29.8161 38.8042 29.9281 38.7075 30.0088C38.6109 30.0895 38.4888 30.1338 38.3627 30.134Z" fill="#2F2E41"/>
<path d="M36.6076 31.6248C37.8711 31.6248 38.8954 30.604 38.8954 29.3449C38.8954 28.0857 37.8711 27.0649 36.6076 27.0649C35.3441 27.0649 34.3198 28.0857 34.3198 29.3449C34.3198 30.604 35.3441 31.6248 36.6076 31.6248Z" fill="#A0616A"/>
<path d="M38.3675 33.9047L35.1998 33.9924L34.9358 30.5725L38.0155 30.4849L38.3675 33.9047Z" fill="#A0616A"/>
<path d="M43.7351 42.0598L41.5493 43.068C41.1831 43.9339 40.6782 43.909 40.0395 43.0244C39.4298 44.0883 38.1168 43.4507 37.4753 42.986C37.0618 42.776 36.6044 42.666 36.1403 42.6651C35.6762 42.6641 35.2183 42.7722 34.804 42.9805L32.4722 32.677C33.1909 32.0612 34.1487 31.6744 35.0679 31.4055L36.8718 33.6416L38.1037 31.4494C38.9599 30.7633 40.1625 30.7621 41.4473 30.9232L42.1975 34.9201C41.7028 38.073 42.4468 39.6543 43.7351 42.0598Z" fill="#6C63FF"/>
<path d="M36.5198 55.6516L34.672 55.827L31.9346 43.7703C31.8723 43.4911 31.8738 43.2015 31.9388 42.923C32.0039 42.6444 32.1309 42.3839 32.3105 42.1608C32.4901 41.9377 32.7176 41.7577 32.9764 41.6339C33.2351 41.5102 33.5185 41.446 33.8055 41.446C34.0784 41.446 34.3481 41.5041 34.5967 41.6163C34.8452 41.7286 35.0668 41.8924 35.2467 42.0969C35.4266 42.3014 35.5606 42.5418 35.6397 42.8021C35.7188 43.0624 35.7413 43.3365 35.7056 43.6061L35.3759 46.0935L36.5198 55.6516Z" fill="#2F2E41"/>
<path d="M42.0632 55.827L43.9111 55.7393L46.6485 43.7703C46.7107 43.4911 46.7093 43.2015 46.6442 42.923C46.5791 42.6444 46.4521 42.3839 46.2725 42.1608C46.093 41.9377 45.8654 41.7577 45.6066 41.6339C45.3479 41.5102 45.0645 41.446 44.7775 41.446C44.5047 41.446 44.2349 41.5041 43.9864 41.6163C43.7378 41.7286 43.5162 41.8924 43.3363 42.0969C43.1564 42.3014 43.0225 42.5418 42.9433 42.8021C42.8642 43.0624 42.8417 43.3365 42.8775 43.6061L43.2071 46.0935L42.0632 55.827Z" fill="#2F2E41"/>
<path d="M48.0693 38.5242L46.5068 42.5421C45.6525 41.8912 44.9637 41.8023 44.0162 42.1475C43.7541 42.1113 43.5591 41.5373 43.5591 41.2736C43.5591 41.1377 43.6117 41.007 43.7059 40.9087C43.8001 40.8105 43.9288 40.7522 44.065 40.746L45.4949 40.6812C45.7565 39.9986 45.9155 39.2812 45.9667 38.5522C46.6529 38.3582 47.3782 38.3485 48.0693 38.5242Z" fill="#A0616A"/>
<path d="M48.2225 38.6399L48.6034 37.2234C48.7698 36.7053 48.7534 36.1462 48.5571 35.6386C48.3608 35.1311 47.9963 34.7057 47.5241 34.433L41.4471 30.9232L41.3591 34.7815L45.8467 36.7107C45.9707 37.3672 46.011 38.0366 45.9666 38.7031C46.6666 38.4958 47.5208 38.4518 48.2225 38.6399Z" fill="#6C63FF"/>
<path d="M38.8516 28.0734L36.4758 28.5118C36.2562 28.5118 36.0388 28.4687 35.836 28.385C35.6332 28.3012 35.4489 28.1785 35.2936 28.0238C35.1384 27.8691 35.0152 27.6854 34.9312 27.4833C34.8472 27.2811 34.804 27.0645 34.804 26.8457H38.9396L38.8516 28.0734Z" fill="#2F2E41"/>
<path d="M34.4959 28.9503C34.6174 28.9503 34.7158 28.754 34.7158 28.5118C34.7158 28.2697 34.6174 28.0734 34.4959 28.0734C34.3744 28.0734 34.2759 28.2697 34.2759 28.5118C34.2759 28.754 34.3744 28.9503 34.4959 28.9503Z" fill="#A0616A"/>
<path d="M41.7552 35.4903H41.7297V34.7927C41.7297 34.7397 41.7192 34.6871 41.6988 34.6382C41.6785 34.5892 41.6486 34.5447 41.611 34.5072C41.5734 34.4697 41.5287 34.4399 41.4796 34.4197C41.4304 34.3994 41.3777 34.3889 41.3245 34.3889H39.8414C39.7882 34.3889 39.7355 34.3994 39.6864 34.4197C39.6372 34.4399 39.5926 34.4697 39.5549 34.5072C39.5173 34.5447 39.4875 34.5892 39.4671 34.6382C39.4468 34.6871 39.4363 34.7397 39.4363 34.7927V38.6198C39.4363 38.6728 39.4468 38.7253 39.4671 38.7743C39.4875 38.8233 39.5173 38.8678 39.5549 38.9053C39.5926 38.9428 39.6372 38.9725 39.6864 38.9928C39.7355 39.0131 39.7882 39.0236 39.8414 39.0236H41.3245C41.3777 39.0236 41.4304 39.0131 41.4796 38.9928C41.5287 38.9725 41.5734 38.9428 41.611 38.9053C41.6486 38.8678 41.6785 38.8233 41.6988 38.7743C41.7192 38.7253 41.7297 38.6728 41.7297 38.6198V35.9869H41.7552V35.4903Z" fill="#E6E6E6"/>
<path d="M40.5234 35.8777C40.7177 35.8777 40.8753 35.7206 40.8753 35.5269C40.8753 35.3332 40.7177 35.1761 40.5234 35.1761C40.329 35.1761 40.1714 35.3332 40.1714 35.5269C40.1714 35.7206 40.329 35.8777 40.5234 35.8777Z" fill="#6C63FF"/>
<path d="M40.2154 38.7276C38.4054 40.1435 36.5907 41.3221 35.2439 41.4898L35.0239 39.0783C36.3175 38.8925 38.047 38.0432 39.8635 37.0615L40.7519 36.6011C40.8952 36.5268 41.0547 36.4891 41.2162 36.4914C41.3776 36.4936 41.536 36.5357 41.6772 36.6139C41.8183 36.692 41.9378 36.8039 42.025 36.9393C42.1122 37.0748 42.1643 37.2297 42.1766 37.3901C42.1942 37.6177 42.131 37.8442 41.998 38.03C41.8651 38.2158 41.6708 38.3492 41.4492 38.4068L40.2154 38.7276Z" fill="#A0616A"/>
<path d="M36.7836 41.5337L33.1759 41.6214C31.962 39.2481 31.5214 36.7156 31.768 34.0416C31.768 33.7559 31.8375 33.4744 31.9706 33.2213C32.1037 32.9682 32.2964 32.751 32.5321 32.5883L32.9119 32.3263C34.5359 34.7288 35.5432 36.9599 35.1997 38.8153L36.2556 38.7276C35.5718 39.6473 35.8884 40.5852 36.7836 41.5337Z" fill="#6C63FF"/>
<path d="M21.1736 51.8896C21.1736 51.8896 21.36 47.8945 25.181 48.3588L21.1736 51.8896Z" fill="#E6E6E6"/>
<path d="M21.1288 65.4272C21.124 65.3854 20.673 61.2224 22.4992 59.0192C23.1732 58.2061 24.0762 57.7507 25.1833 57.6659L25.1955 57.8228C24.1329 57.9043 23.2668 58.3405 22.6212 59.1192C20.8378 61.2704 21.2811 65.3683 21.2857 65.4094L21.1288 65.4272Z" fill="#E6E6E6"/>
<path d="M21.1333 47.8047H20.9744V65.3082H21.1333V47.8047Z" fill="#E6E6E6"/>
<path d="M21.0762 48.005C21.7968 48.005 22.381 47.4229 22.381 46.7047C22.381 45.9866 21.7968 45.4045 21.0762 45.4045C20.3556 45.4045 19.7715 45.9866 19.7715 46.7047C19.7715 47.4229 20.3556 48.005 21.0762 48.005Z" fill="#6C63FF"/>
<path d="M25.1893 59.0364C25.9054 59.0364 26.4858 58.4579 26.4858 57.7444C26.4858 57.0308 25.9054 56.4523 25.1893 56.4523C24.4733 56.4523 23.8928 57.0308 23.8928 57.7444C23.8928 58.4579 24.4733 59.0364 25.1893 59.0364Z" fill="#E6E6E6"/>
<path d="M63.2655 22.8708C62.8369 22.8708 62.418 22.9974 62.0617 23.2347C61.7053 23.472 61.4276 23.8093 61.2636 24.2038C61.0996 24.5984 61.0567 25.0326 61.1403 25.4515C61.2239 25.8704 61.4303 26.2551 61.7333 26.5571C62.0363 26.8591 62.4224 27.0648 62.8428 27.1481C63.2631 27.2314 63.6988 27.1887 64.0947 27.0252C64.4907 26.8618 64.8291 26.585 65.0672 26.2299C65.3053 25.8748 65.4324 25.4573 65.4324 25.0302C65.4324 24.7466 65.3763 24.4658 65.2674 24.2038C65.1585 23.9418 64.9989 23.7038 64.7977 23.5033C64.5965 23.3027 64.3576 23.1437 64.0947 23.0352C63.8318 22.9266 63.5501 22.8708 63.2655 22.8708ZM64.2637 25.2407C64.2413 25.2407 64.167 25.24 64.1453 25.2387L63.7183 25.2276C63.716 25.2275 63.7139 25.228 63.7119 25.2291C63.7099 25.2301 63.7083 25.2316 63.7071 25.2335L63.0662 26.1882C63.0567 26.2031 63.0436 26.2153 63.0281 26.2238C63.0125 26.2323 62.9951 26.2367 62.9774 26.2367H62.8215C62.7846 26.2367 62.7721 26.2 62.7853 26.1659L63.1149 25.2289C63.1157 25.2269 63.1159 25.2248 63.1157 25.2228C63.1155 25.2207 63.1148 25.2187 63.1136 25.217C63.1124 25.2152 63.1109 25.2138 63.1091 25.2128C63.1072 25.2118 63.1052 25.2112 63.1031 25.2112L62.3023 25.1935C62.294 25.1933 62.2858 25.195 62.2782 25.1985C62.2707 25.2021 62.2641 25.2073 62.2589 25.2138L62.0109 25.5134C62.0009 25.5259 61.9883 25.5359 61.974 25.5428C61.9596 25.5498 61.9439 25.5534 61.928 25.5534H61.8181C61.8139 25.5535 61.8097 25.5525 61.806 25.5506C61.8022 25.5487 61.799 25.546 61.7965 25.5425C61.7941 25.5391 61.7925 25.5352 61.7919 25.531C61.7913 25.5269 61.7917 25.5227 61.7931 25.5187L61.924 25.0682C61.9339 25.0432 61.9339 25.0153 61.924 24.9902L61.7931 24.5397C61.7917 24.5358 61.7913 24.5315 61.7919 24.5274C61.7925 24.5232 61.7941 24.5193 61.7965 24.5159C61.799 24.5125 61.8022 24.5097 61.806 24.5078C61.8097 24.5059 61.8139 24.5049 61.8181 24.505H61.9286C61.9446 24.5049 61.9604 24.5085 61.9747 24.5154C61.9891 24.5223 62.0017 24.5324 62.0115 24.545L62.255 24.84C62.2601 24.8466 62.2667 24.8519 62.2742 24.8554C62.2818 24.8589 62.2901 24.8606 62.2984 24.8604L63.1037 24.8486C63.1058 24.8486 63.1079 24.848 63.1098 24.847C63.1116 24.846 63.1132 24.8446 63.1144 24.8429C63.1155 24.8411 63.1163 24.8391 63.1165 24.837C63.1167 24.8349 63.1164 24.8328 63.1156 24.8309L62.7859 23.8945C62.7728 23.8604 62.7853 23.8237 62.8221 23.8237H62.9781C62.9958 23.8238 63.0132 23.8282 63.0287 23.8367C63.0442 23.8452 63.0573 23.8574 63.0669 23.8722L63.7071 24.8276C63.7082 24.8295 63.7099 24.8311 63.7118 24.8321C63.7138 24.8331 63.716 24.8336 63.7183 24.8335L64.1453 24.8223C64.1663 24.821 64.2413 24.8204 64.2637 24.8204C64.5558 24.8204 64.7394 24.9148 64.7394 25.0308C64.7394 25.1469 64.5552 25.2407 64.2637 25.2407Z" fill="#3F3D56"/>
<path d="M68.7643 24.9288H68.2256V25.1077H68.7643V24.9288Z" fill="#3F3D56"/>
<path d="M87.7325 25.1077H86.6786V24.9288H87.7325V25.1077ZM85.6249 25.1077H84.571V24.9288H85.6249L85.6249 25.1077ZM83.5173 25.1077H82.4634V24.9288H83.5173V25.1077ZM81.4097 25.1077H80.3558V24.9288H81.4097V25.1077ZM79.3021 25.1077H78.2482V24.9288H79.3021V25.1077ZM77.1945 25.1077H76.1406V24.9288H77.1945V25.1077ZM75.0869 25.1077H74.0331V24.9288H75.0869V25.1077ZM72.9793 25.1077H71.9255V24.9288H72.9793V25.1077ZM70.8717 25.1077H69.8179V24.9288H70.8717V25.1077Z" fill="#3F3D56"/>
<path d="M89.3251 24.9288H88.7864V25.1077H89.3251V24.9288Z" fill="#3F3D56"/>
<path d="M68.7643 31.1027H68.2256V31.2816H68.7643V31.1027Z" fill="#3F3D56"/>
<path d="M87.7325 31.2816H86.6786V31.1027H87.7325V31.2816ZM85.6249 31.2816H84.571V31.1027H85.6249L85.6249 31.2816ZM83.5173 31.2816H82.4634V31.1027H83.5173V31.2816ZM81.4097 31.2816H80.3558V31.1027H81.4097V31.2816ZM79.3021 31.2816H78.2482V31.1027H79.3021V31.2816ZM77.1945 31.2816H76.1406V31.1027H77.1945V31.2816ZM75.0869 31.2816H74.0331V31.1027H75.0869V31.2816ZM72.9793 31.2816H71.9255V31.1027H72.9793V31.2816ZM70.8717 31.2816H69.8179V31.1027H70.8717V31.2816Z" fill="#3F3D56"/>
<path d="M89.3251 31.1027H88.7864V31.2816H89.3251V31.1027Z" fill="#3F3D56"/>
<path d="M68.7643 37.2766H68.2256V37.4555H68.7643V37.2766Z" fill="#3F3D56"/>
<path d="M87.7325 37.4555H86.6786V37.2766H87.7325V37.4555ZM85.6249 37.4555H84.571V37.2766H85.6249L85.6249 37.4555ZM83.5173 37.4555H82.4634V37.2766H83.5173V37.4555ZM81.4097 37.4555H80.3558V37.2766H81.4097V37.4555ZM79.3021 37.4555H78.2482V37.2766H79.3021V37.4555ZM77.1945 37.4555H76.1406V37.2766H77.1945V37.4555ZM75.0869 37.4555H74.0331V37.2766H75.0869V37.4555ZM72.9793 37.4555H71.9255V37.2766H72.9793V37.4555ZM70.8717 37.4555H69.8179V37.2766H70.8717V37.4555Z" fill="#3F3D56"/>
<path d="M89.3251 37.2766H88.7864V37.4555H89.3251V37.2766Z" fill="#3F3D56"/>
<path d="M63.2266 29.1342C62.8125 29.1342 62.4076 29.2565 62.0632 29.4859C61.7189 29.7152 61.4505 30.0411 61.292 30.4224C61.1335 30.8037 61.092 31.2233 61.1728 31.6281C61.2536 32.0329 61.453 32.4048 61.7459 32.6966C62.0388 32.9885 62.4119 33.1872 62.8181 33.2678C63.2243 33.3483 63.6453 33.307 64.028 33.149C64.4106 32.9911 64.7377 32.7236 64.9678 32.3804C65.1979 32.0372 65.3207 31.6337 65.3207 31.221C65.3207 30.6675 65.1001 30.1367 64.7073 29.7454C64.3146 29.354 63.782 29.1342 63.2266 29.1342ZM62.2474 31.15L62.3631 30.5367C62.393 30.37 62.4706 30.2388 62.6162 30.2388H62.8349L62.8477 30.1888C62.8588 30.1451 62.8842 30.1064 62.9199 30.0787C62.9556 30.0511 62.9996 30.0361 63.0448 30.0361H63.4072C63.4523 30.036 63.4962 30.051 63.5319 30.0785C63.5675 30.106 63.593 30.1446 63.6043 30.1881L63.617 30.2388H63.837C63.9795 30.2388 64.0551 30.3675 64.0907 30.536V30.5367L64.2071 31.1507C64.208 31.1553 64.2077 31.16 64.206 31.1644C64.2044 31.1688 64.2016 31.1726 64.1979 31.1755C64.1942 31.1784 64.1898 31.1802 64.1851 31.1808C64.1805 31.1813 64.1757 31.1805 64.1715 31.1785L64.01 31.1044C64.0062 31.1028 64.0028 31.1003 64.0003 31.0971C63.9977 31.0939 63.996 31.0901 63.9954 31.086L63.8924 30.5436C63.8733 30.4739 63.8466 30.4422 63.79 30.4422H62.6639C62.6079 30.4422 62.5774 30.4758 62.5615 30.5436L62.4585 31.086C62.4577 31.09 62.456 31.0938 62.4535 31.097C62.4509 31.1002 62.4476 31.1027 62.4439 31.1044L62.283 31.1779C62.2788 31.1798 62.2741 31.1805 62.2694 31.18C62.2648 31.1794 62.2604 31.1776 62.2567 31.1747C62.2531 31.1719 62.2503 31.168 62.2486 31.1637C62.247 31.1593 62.2466 31.1546 62.2474 31.15ZM64.49 31.5448L64.1422 32.4059C64.0116 32.3929 63.887 32.3447 63.7817 32.2665C63.6216 32.3342 63.4511 32.3741 63.2775 32.3844C63.2597 32.385 63.2425 32.3857 63.2266 32.3857C63.2107 32.3857 63.1936 32.3857 63.1758 32.3844C63.0022 32.3738 62.8317 32.3339 62.6715 32.2665C62.5663 32.3447 62.4416 32.3929 62.311 32.4059L61.9632 31.5448C61.9578 31.5313 61.955 31.5169 61.9549 31.5023C61.9549 31.4805 61.9612 31.4591 61.9731 31.4407C61.9849 31.4222 62.0018 31.4076 62.0217 31.3984L63.205 30.8566C63.2117 30.8535 63.2189 30.8519 63.2263 30.8519C63.2337 30.8519 63.2409 30.8535 63.2476 30.8566L64.4315 31.3984C64.4515 31.4076 64.4684 31.4222 64.4802 31.4407C64.492 31.4591 64.4983 31.4805 64.4983 31.5023C64.4982 31.5169 64.4954 31.5313 64.49 31.5448Z" fill="#3F3D56"/>
<path d="M63.9813 36.8644H63.3514C63.3446 36.8644 63.3381 36.8671 63.3332 36.8719C63.3284 36.8767 63.3257 36.8832 63.3257 36.89V37.7867C63.3257 37.7935 63.3284 37.8 63.3332 37.8048C63.3381 37.8096 63.3446 37.8123 63.3514 37.8123H63.9813C64.0085 37.8122 64.0346 37.8014 64.0539 37.7822C64.0731 37.763 64.084 37.737 64.0841 37.7098V36.9669C64.084 36.9397 64.0731 36.9137 64.0539 36.8945C64.0346 36.8753 64.0085 36.8645 63.9813 36.8644Z" fill="#3F3D56"/>
<path d="M63.8398 38.0044C63.7999 38.0076 63.7628 38.026 63.7363 38.0558C63.7097 38.0856 63.6958 38.1244 63.6974 38.1643C63.699 38.2041 63.7159 38.2417 63.7448 38.2693C63.7736 38.2969 63.812 38.3124 63.852 38.3124C63.892 38.3124 63.9304 38.2969 63.9592 38.2693C63.988 38.2417 64.005 38.2041 64.0066 38.1643C64.0082 38.1244 63.9942 38.0856 63.9677 38.0558C63.9411 38.026 63.9041 38.0076 63.8642 38.0044C63.8561 38.0038 63.8479 38.0038 63.8398 38.0044Z" fill="#3F3D56"/>
<path d="M62.6064 38.0044C62.5665 38.0076 62.5294 38.026 62.5029 38.0558C62.4764 38.0856 62.4624 38.1244 62.464 38.1643C62.4656 38.2041 62.4825 38.2417 62.5114 38.2693C62.5402 38.2969 62.5786 38.3124 62.6186 38.3124C62.6586 38.3124 62.697 38.2969 62.7258 38.2693C62.7546 38.2417 62.7716 38.2041 62.7732 38.1643C62.7748 38.1244 62.7608 38.0856 62.7343 38.0558C62.7077 38.026 62.6707 38.0076 62.6308 38.0044C62.6227 38.0038 62.6145 38.0038 62.6064 38.0044Z" fill="#3F3D56"/>
<path d="M63.1199 36.8644H62.4913C62.4637 36.8645 62.4373 36.8754 62.4178 36.8949C62.3983 36.9143 62.3873 36.9407 62.3872 36.9681V37.7086C62.3873 37.736 62.3983 37.7624 62.4178 37.7818C62.4373 37.8013 62.4637 37.8122 62.4913 37.8123H63.1199C63.1267 37.8123 63.1332 37.8096 63.1381 37.8048C63.1429 37.8 63.1456 37.7935 63.1456 37.7867V36.89C63.1456 36.8832 63.1429 36.8767 63.1381 36.8719C63.1332 36.8671 63.1267 36.8644 63.1199 36.8644Z" fill="#3F3D56"/>
<path d="M63.2358 35.3186C62.8172 35.3186 62.4079 35.4423 62.0599 35.6741C61.7118 35.9059 61.4405 36.2353 61.2803 36.6208C61.1201 37.0062 61.0781 37.4303 61.1598 37.8395C61.2415 38.2487 61.4431 38.6246 61.7391 38.9196C62.0351 39.2146 62.4123 39.4155 62.8229 39.4969C63.2335 39.5783 63.6591 39.5365 64.0458 39.3768C64.4326 39.2172 64.7632 38.9468 64.9958 38.5999C65.2284 38.253 65.3525 37.8452 65.3525 37.428C65.3525 36.8686 65.1295 36.332 64.7325 35.9364C64.3356 35.5408 63.7972 35.3186 63.2358 35.3186ZM64.2642 38.2863C64.264 38.3542 64.2368 38.4192 64.1886 38.4672C64.1405 38.5152 64.0752 38.5423 64.0071 38.5425H62.4646C62.3964 38.5423 62.3312 38.5152 62.283 38.4672C62.2348 38.4192 62.2077 38.3542 62.2075 38.2863V36.5185C62.2076 36.4642 62.2294 36.4121 62.2679 36.3737C62.3064 36.3353 62.3586 36.3137 62.4131 36.3135H64.0585C64.113 36.3137 64.1652 36.3353 64.2038 36.3737C64.2423 36.4121 64.264 36.4642 64.2642 36.5185V38.2863Z" fill="#3F3D56"/>
<path d="M63.9876 36.4929H62.4836C62.4713 36.492 62.4589 36.4937 62.4472 36.4979C62.4356 36.502 62.4249 36.5084 62.4159 36.5169C62.4068 36.5253 62.3996 36.5354 62.3947 36.5467C62.3898 36.558 62.3872 36.5702 62.3872 36.5826C62.3872 36.5949 62.3898 36.6071 62.3947 36.6184C62.3996 36.6297 62.4068 36.6399 62.4159 36.6483C62.4249 36.6567 62.4356 36.6631 62.4472 36.6673C62.4589 36.6714 62.4713 36.6731 62.4836 36.6722H63.9876C63.9999 36.6731 64.0123 36.6714 64.0239 36.6673C64.0356 36.6631 64.0463 36.6567 64.0553 36.6483C64.0644 36.6399 64.0716 36.6297 64.0765 36.6184C64.0814 36.6071 64.084 36.5949 64.084 36.5826C64.084 36.5702 64.0814 36.558 64.0765 36.5467C64.0716 36.5354 64.0644 36.5253 64.0553 36.5169C64.0463 36.5084 64.0356 36.502 64.0239 36.4979C64.0123 36.4937 63.9999 36.492 63.9876 36.4929Z" fill="#3F3D56"/>
<path d="M92.4676 26.3604C92.2013 26.3604 91.9409 26.2817 91.7194 26.1342C91.4979 25.9867 91.3253 25.7771 91.2234 25.5319C91.1214 25.2866 91.0948 25.0167 91.1467 24.7564C91.1987 24.496 91.327 24.2569 91.5153 24.0692C91.7037 23.8815 91.9436 23.7537 92.2049 23.7019C92.4661 23.6501 92.7369 23.6767 92.983 23.7783C93.2291 23.8798 93.4395 24.0519 93.5874 24.2726C93.7354 24.4933 93.8144 24.7528 93.8144 25.0182C93.814 25.3741 93.672 25.7152 93.4195 25.9668C93.167 26.2185 92.8247 26.36 92.4676 26.3604ZM92.4676 23.855C92.2368 23.855 92.0111 23.9233 91.8192 24.0511C91.6272 24.1789 91.4776 24.3606 91.3893 24.5731C91.3009 24.7856 91.2778 25.0195 91.3229 25.2452C91.3679 25.4708 91.4791 25.6781 91.6423 25.8407C91.8055 26.0034 92.0135 26.1142 92.2399 26.1591C92.4663 26.204 92.701 26.1809 92.9143 26.0929C93.1276 26.0049 93.3099 25.8558 93.4381 25.6645C93.5664 25.4732 93.6348 25.2483 93.6348 25.0182C93.6345 24.7098 93.5114 24.4142 93.2926 24.1961C93.0738 23.9781 92.7771 23.8554 92.4676 23.855Z" fill="#6C63FF"/>
<path d="M92.9799 24.6341L92.8529 24.5076L92.4675 24.8918L92.082 24.5076L91.9551 24.6341L92.3405 25.0183L91.9551 25.4024L92.082 25.5289L92.4675 25.1448L92.8529 25.5289L92.9799 25.4024L92.5944 25.0183L92.9799 24.6341Z" fill="#6C63FF"/>
<path d="M92.4676 32.5343C92.2013 32.5343 91.9409 32.4556 91.7194 32.3081C91.4979 32.1606 91.3253 31.951 91.2234 31.7057C91.1214 31.4605 91.0948 31.1906 91.1467 30.9303C91.1987 30.6699 91.327 30.4308 91.5153 30.2431C91.7037 30.0554 91.9436 29.9276 92.2049 29.8758C92.4661 29.824 92.7369 29.8506 92.983 29.9521C93.2291 30.0537 93.4395 30.2258 93.5874 30.4465C93.7354 30.6672 93.8144 30.9267 93.8144 31.1921C93.814 31.548 93.672 31.8891 93.4195 32.1407C93.167 32.3923 92.8247 32.5339 92.4676 32.5343ZM92.4676 30.0289C92.2368 30.0289 92.0111 30.0972 91.8192 30.225C91.6272 30.3528 91.4776 30.5344 91.3893 30.747C91.3009 30.9595 91.2778 31.1934 91.3229 31.4191C91.3679 31.6447 91.4791 31.852 91.6423 32.0146C91.8055 32.1773 92.0135 32.2881 92.2399 32.333C92.4663 32.3779 92.701 32.3548 92.9143 32.2668C93.1276 32.1787 93.3099 32.0297 93.4381 31.8384C93.5664 31.6471 93.6348 31.4222 93.6348 31.1921C93.6345 30.8837 93.5114 30.5881 93.2926 30.37C93.0738 30.1519 92.7771 30.0293 92.4676 30.0289Z" fill="#6C63FF"/>
<path d="M92.9799 30.808L92.8529 30.6815L92.4675 31.0656L92.082 30.6815L91.9551 30.808L92.3405 31.1922L91.9551 31.5763L92.082 31.7028L92.4675 31.3187L92.8529 31.7028L92.9799 31.5763L92.5944 31.1922L92.9799 30.808Z" fill="#6C63FF"/>
<path d="M92.4676 38.7082C92.2013 38.7082 91.9409 38.6295 91.7194 38.482C91.4979 38.3345 91.3253 38.1249 91.2234 37.8796C91.1214 37.6344 91.0948 37.3645 91.1467 37.1042C91.1987 36.8438 91.327 36.6047 91.5153 36.417C91.7037 36.2293 91.9436 36.1014 92.2049 36.0497C92.4661 35.9979 92.7369 36.0244 92.983 36.126C93.2291 36.2276 93.4395 36.3996 93.5874 36.6204C93.7354 36.8411 93.8144 37.1006 93.8144 37.366C93.814 37.7219 93.672 38.063 93.4195 38.3146C93.167 38.5662 92.8247 38.7078 92.4676 38.7082ZM92.4676 36.2028C92.2368 36.2028 92.0111 36.271 91.8192 36.3989C91.6272 36.5267 91.4776 36.7083 91.3893 36.9209C91.3009 37.1334 91.2778 37.3673 91.3229 37.5929C91.3679 37.8186 91.4791 38.0258 91.6423 38.1885C91.8055 38.3512 92.0135 38.462 92.2399 38.5069C92.4663 38.5517 92.701 38.5287 92.9143 38.4407C93.1276 38.3526 93.3099 38.2035 93.4381 38.0123C93.5664 37.821 93.6348 37.5961 93.6348 37.366C93.6345 37.0576 93.5114 36.762 93.2926 36.5439C93.0738 36.3258 92.7771 36.2032 92.4676 36.2028Z" fill="#6C63FF"/>
<path d="M92.9799 36.9819L92.8529 36.8554L92.4675 37.2395L92.082 36.8554L91.9551 36.9819L92.3405 37.3661L91.9551 37.7502L92.082 37.8767L92.4675 37.4926L92.8529 37.8767L92.9799 37.7502L92.5944 37.3661L92.9799 36.9819Z" fill="#6C63FF"/>
</g>
<defs>
<filter id="filter0_dd_3105_1683" x="-14" y="-15.5" width="144" height="114" filterUnits="userSpaceOnUse" color-interpolation-filters="sRGB">
<feFlood flood-opacity="0" result="BackgroundImageFix"/>
<feColorMatrix in="SourceAlpha" type="matrix" values="0 0 0 0 0 0 0 0 0 0 0 0 0 0 0 0 0 0 127 0" result="hardAlpha"/>
<feMorphology radius="8" operator="erode" in="SourceAlpha" result="effect1_dropShadow_3105_1683"/>
<feOffset dy="8"/>
<feGaussianBlur stdDeviation="16"/>
<feComposite in2="hardAlpha" operator="out"/>
<feColorMatrix type="matrix" values="0 0 0 0 0 0 0 0 0 0 0 0 0 0 0 0 0 0 0.16 0"/>
<feBlend mode="multiply" in2="BackgroundImageFix" result="effect1_dropShadow_3105_1683"/>
<feColorMatrix in="SourceAlpha" type="matrix" values="0 0 0 0 0 0 0 0 0 0 0 0 0 0 0 0 0 0 127 0" result="hardAlpha"/>
<feMorphology radius="4" operator="erode" in="SourceAlpha" result="effect2_dropShadow_3105_1683"/>
<feOffset/>
<feGaussianBlur stdDeviation="8"/>
<feComposite in2="hardAlpha" operator="out"/>
<feColorMatrix type="matrix" values="0 0 0 0 0 0 0 0 0 0 0 0 0 0 0 0 0 0 0.05 0"/>
<feBlend mode="multiply" in2="effect1_dropShadow_3105_1683" result="effect2_dropShadow_3105_1683"/>
<feBlend mode="normal" in="SourceGraphic" in2="effect2_dropShadow_3105_1683" result="shape"/>
</filter>
<clipPath id="clip0_3105_1683">
<rect width="80" height="50" fill="white" transform="translate(18 16.5)"/>
</clipPath>
</defs>
</svg>
