<svg width="48" height="48" viewBox="0 0 48 48" fill="none" xmlns="http://www.w3.org/2000/svg">
<g clip-path="url(#clip0_3478_1818)">
<path opacity="0.5" fill-rule="evenodd" clip-rule="evenodd" d="M33.1578 12C29.155 12 25.91 15.2449 25.91 19.2478C25.91 22.5912 28.1739 25.4059 31.2524 26.2425C27.0244 26.7064 23.8113 28.9208 21.618 32.1613C19.1638 35.7873 18 40.6674 18 45.7927C18 46.2566 18.3761 46.6327 18.84 46.6327H47.0412C47.5051 46.6327 47.8812 46.2566 47.8812 45.7927C47.8812 40.5432 47.0795 35.6508 44.7905 32.048C42.7528 28.8409 39.5879 26.7363 35.0109 26.2565C38.116 25.4377 40.4056 22.6101 40.4056 19.2478C40.4056 15.2449 37.1606 12 33.1578 12ZM18.8508 44.9527C18.9916 39.4791 20.5166 34.4485 23.4941 31.1125C20.365 34.6185 18.8402 39.9961 18.8402 45.7925C18.8402 45.5114 18.8436 45.2316 18.8508 44.9527Z" fill="url(#paint0_radial_3478_1818)"/>
<path fill-rule="evenodd" clip-rule="evenodd" d="M25.1163 7C21.1135 7 17.8685 10.2449 17.8685 14.2478C17.8685 17.5912 20.1324 20.4059 23.2109 21.2425C18.9829 21.7064 15.7698 23.9208 13.5765 27.1613C11.1223 30.7873 9.9585 35.6674 9.9585 40.7927C9.9585 41.2566 10.3346 41.6327 10.7985 41.6327H38.9997C39.4636 41.6327 39.8397 41.2566 39.8397 40.7927C39.8397 35.5432 39.038 30.6508 36.749 27.048C34.7113 23.8409 31.5464 21.7363 26.9694 21.2565C30.0745 20.4377 32.3641 17.6101 32.3641 14.2478C32.3641 10.2449 29.1191 7 25.1163 7ZM10.8093 39.9527C10.9501 34.4791 12.4751 29.4485 15.4526 26.1125C12.3235 29.6185 10.7987 34.9961 10.7987 40.7925C10.7987 40.5114 10.8021 40.2316 10.8093 39.9527Z" fill="url(#paint1_radial_3478_1818)"/>
<mask id="mask0_3478_1818" style="mask-type:luminance" maskUnits="userSpaceOnUse" x="-1" y="0" width="32" height="37">
<path d="M30.604 0H-0.395996V37H30.604V0Z" fill="white"/>
<path fill-rule="evenodd" clip-rule="evenodd" d="M15.5343 1C11.4926 1 8.21616 4.27643 8.21616 8.31812C8.21616 12.3598 11.4926 15.6362 15.5343 15.6362C19.576 15.6362 22.8524 12.3598 22.8524 8.31812C22.8524 4.27643 19.576 1 15.5343 1ZM29.604 35.7924C29.604 26.8809 26.3806 19.6566 15.3665 19.6566C5.7363 19.6566 1.12904 27.1867 1.12904 35.7924H29.604Z" fill="white"/>
</mask>
<g mask="url(#mask0_3478_1818)">
<path d="M29.604 35.7924H30.604C30.604 36.3447 30.1563 36.7924 29.604 36.7924V35.7924ZM1.12904 35.7924V36.7924C0.576759 36.7924 0.129044 36.3447 0.129044 35.7924H1.12904ZM7.21616 8.31812C7.21616 3.72415 10.9403 0 15.5343 0V2C12.0449 2 9.21616 4.82872 9.21616 8.31812H7.21616ZM15.5343 16.6362C10.9403 16.6362 7.21616 12.9121 7.21616 8.31812H9.21616C9.21616 11.8075 12.0449 14.6362 15.5343 14.6362V16.6362ZM23.8524 8.31812C23.8524 12.9121 20.1282 16.6362 15.5343 16.6362V14.6362C19.0237 14.6362 21.8524 11.8075 21.8524 8.31812H23.8524ZM15.5343 0C20.1282 0 23.8524 3.72415 23.8524 8.31812H21.8524C21.8524 4.82872 19.0237 2 15.5343 2V0ZM15.3665 18.6566C21.1122 18.6566 25.0035 20.5558 27.4165 23.784C29.7875 26.956 30.604 31.2467 30.604 35.7924H28.604C28.604 31.4266 27.8088 27.6494 25.8145 24.9814C23.8623 22.3696 20.6348 20.6566 15.3665 20.6566V18.6566ZM0.129044 35.7924C0.129044 31.3248 1.32353 27.0525 3.85415 23.8745C6.40804 20.6672 10.2608 18.6566 15.3665 18.6566V20.6566C10.8419 20.6566 7.57601 22.4111 5.41873 25.1203C3.23817 27.8587 2.12904 31.6543 2.12904 35.7924H0.129044ZM29.604 36.7924H1.12904V34.7924H29.604V36.7924Z" fill="white"/>
</g>
</g>
<defs>
<radialGradient id="paint0_radial_3478_1818" cx="0" cy="0" r="1" gradientUnits="userSpaceOnUse" gradientTransform="translate(33.0415 -30.5) rotate(90) scale(84 171.739)">
<stop stop-color="white"/>
<stop offset="1" stop-color="#0009B0"/>
</radialGradient>
<radialGradient id="paint1_radial_3478_1818" cx="0" cy="0" r="1" gradientUnits="userSpaceOnUse" gradientTransform="translate(25 -35.5) rotate(90) scale(84 171.739)">
<stop stop-color="white"/>
<stop offset="1" stop-color="#0009B0"/>
</radialGradient>
<clipPath id="clip0_3478_1818">
<rect width="48" height="48" fill="white"/>
</clipPath>
</defs>
</svg>
