<svg width="40" height="40" viewBox="0 0 40 40" fill="none" xmlns="http://www.w3.org/2000/svg">
<g clip-path="url(#clip0_3478_1993)">
<path d="M19.9899 0C20.9099 0.00166667 21.8183 0.0633333 22.7149 0.185C23.5574 0.3025 23.9624 1.245 23.5249 1.975L23.4899 2.035C23.3573 2.25137 23.1643 2.42418 22.9346 2.53213C22.7049 2.64008 22.4487 2.67845 22.1974 2.6425C19.7332 2.3282 17.2303 2.54253 14.8554 3.27121C12.4805 3.99989 10.288 5.2262 8.42414 6.86847C6.56023 8.51075 5.06761 10.5313 4.04567 12.7955C3.02374 15.0598 2.49594 17.5158 2.49744 20C2.49744 29.675 10.3224 37.5 19.9974 37.5C22.4818 37.5019 24.9381 36.9743 27.2027 35.9525C29.4672 34.9308 31.4881 33.4382 33.1306 31.5742C34.7732 29.7103 35.9997 27.5178 36.7285 25.1427C37.4574 22.7676 37.6718 20.2644 37.3574 17.8C37.3215 17.5488 37.3599 17.2925 37.4678 17.0629C37.5758 16.8332 37.7486 16.6401 37.9649 16.5075L38.0199 16.4725C38.7499 16.035 39.6949 16.44 39.8099 17.2825C39.9349 18.1692 39.9974 19.0775 39.9974 20.0075C39.9974 31.0575 31.0474 40.0075 19.9974 40.0075C8.94744 40.0075 -0.00256348 31.0575 -0.00256348 20.0075C-0.00256348 8.9575 8.94744 0.0075 19.9974 0.0075L19.9899 0Z" fill="url(#paint0_radial_3478_1993)"/>
<path d="M19.99 10C20.4325 10 20.6225 10.5275 20.31 10.84L18.83 12.32C18.6117 12.5291 18.343 12.6781 18.05 12.7525C16.456 13.1817 15.0481 14.1248 14.0446 15.4356C13.0412 16.7465 12.4983 18.3517 12.5 20.0025C12.5 24.1525 15.85 27.5025 20 27.5025C23.475 27.5025 26.4 25.1425 27.25 21.9525C27.3244 21.6595 27.4734 21.3908 27.6825 21.1725L29.1625 19.6925C29.4775 19.3775 30.005 19.5675 30.005 20.0125C30.005 25.5375 25.53 30.0125 20.005 30.0125C14.48 30.0125 10.005 25.5375 10.005 20.0125C10.005 14.4875 14.48 10.0125 20.005 10.0125L19.99 10Z" fill="url(#paint1_radial_3478_1993)"/>
<path d="M31.49 0.0199577C31.7388 0.0630617 31.9686 0.180474 32.1494 0.356741C32.3301 0.533007 32.4532 0.759866 32.5025 1.00746L33.59 6.43246L39.015 7.51996C39.2624 7.56952 39.4889 7.69276 39.6649 7.87348C39.8409 8.05419 39.9581 8.28393 40.0011 8.53249C40.0441 8.78105 40.0109 9.03681 39.9059 9.26614C39.8008 9.49548 39.6288 9.68767 39.4125 9.81746L33.1625 13.5675C32.9684 13.6837 32.7463 13.745 32.52 13.745H28.045L22.17 19.62C21.9343 19.8477 21.6185 19.9736 21.2908 19.9708C20.963 19.968 20.6495 19.8365 20.4178 19.6047C20.186 19.373 20.0545 19.0595 20.0517 18.7317C20.0488 18.404 20.1748 18.0882 20.4025 17.8525L26.2775 11.9775V7.50246L26.29 7.33496C26.3123 7.16708 26.3684 7.00548 26.455 6.85996L30.205 0.609958L30.315 0.454958C30.4558 0.286364 30.6386 0.157851 30.8449 0.0823616C31.0511 0.00687243 31.2737 -0.0129269 31.49 0.0249577V0.0199577Z" fill="url(#paint2_radial_3478_1993)"/>
</g>
<defs>
<radialGradient id="paint0_radial_3478_1993" cx="0" cy="0" r="1" gradientUnits="userSpaceOnUse" gradientTransform="translate(20.1325 -49.0958) rotate(90) scale(97.0363 229.896)">
<stop stop-color="white"/>
<stop offset="1" stop-color="#0009B0"/>
</radialGradient>
<radialGradient id="paint1_radial_3478_1993" cx="0" cy="0" r="1" gradientUnits="userSpaceOnUse" gradientTransform="translate(20.0725 -14.5586) rotate(90) scale(48.5394 114.948)">
<stop stop-color="white"/>
<stop offset="1" stop-color="#0009B0"/>
</radialGradient>
<radialGradient id="paint2_radial_3478_1993" cx="0" cy="0" r="1" gradientUnits="userSpaceOnUse" gradientTransform="translate(30.103 -24.4936) rotate(90) scale(48.4233 114.763)">
<stop stop-color="white"/>
<stop offset="1" stop-color="#0009B0"/>
</radialGradient>
<clipPath id="clip0_3478_1993">
<rect width="40" height="40" fill="white" transform="translate(-0.0100098)"/>
</clipPath>
</defs>
</svg>
