<svg width="19" height="18" viewBox="0 0 19 18" fill="none" xmlns="http://www.w3.org/2000/svg">
<g clip-path="url(#clip0_3692_1083)">
<path fill-rule="evenodd" clip-rule="evenodd" d="M5.82008 2C6.08529 2 6.33965 2.09877 6.52719 2.27459C6.71472 2.4504 6.82008 2.68886 6.82008 2.9375V3.875H7.82008C8.0853 3.875 8.33965 3.97377 8.52719 4.14959C8.71473 4.3254 8.82008 4.56386 8.82008 4.8125C8.82008 5.06114 8.71473 5.2996 8.52719 5.47541C8.33965 5.65123 8.0853 5.75 7.82008 5.75H6.82008V6.6875C6.82008 6.93614 6.71472 7.1746 6.52719 7.35041C6.33965 7.52623 6.08529 7.625 5.82008 7.625C5.55486 7.625 5.3005 7.52623 5.11297 7.35041C4.92543 7.1746 4.82007 6.93614 4.82007 6.6875V5.75H3.82007C3.55485 5.75 3.3005 5.65123 3.11296 5.47541C2.92543 5.2996 2.82007 5.06114 2.82007 4.8125C2.82007 4.56386 2.92543 4.3254 3.11296 4.14959C3.3005 3.97377 3.55485 3.875 3.82007 3.875H4.82007V2.9375C4.82007 2.68886 4.92543 2.4504 5.11297 2.27459C5.3005 2.09877 5.55486 2 5.82008 2ZM5.82008 11.375C6.08529 11.375 6.33965 11.4738 6.52719 11.6496C6.71472 11.8254 6.82008 12.0639 6.82008 12.3125V13.25H7.82008C8.0853 13.25 8.33965 13.3488 8.52719 13.5246C8.71473 13.7004 8.82008 13.9389 8.82008 14.1875C8.82008 14.4361 8.71473 14.6746 8.52719 14.8504C8.33965 15.0262 8.0853 15.125 7.82008 15.125H6.82008V16.0625C6.82008 16.3111 6.71472 16.5496 6.52719 16.7254C6.33965 16.9012 6.08529 17 5.82008 17C5.55486 17 5.3005 16.9012 5.11297 16.7254C4.92543 16.5496 4.82007 16.3111 4.82007 16.0625V15.125H3.82007C3.55485 15.125 3.3005 15.0262 3.11296 14.8504C2.92543 14.6746 2.82007 14.4361 2.82007 14.1875C2.82007 13.9389 2.92543 13.7004 3.11296 13.5246C3.3005 13.3488 3.55485 13.25 3.82007 13.25H4.82007V12.3125C4.82007 12.0639 4.92543 11.8254 5.11297 11.6496C5.3005 11.4738 5.55486 11.375 5.82008 11.375ZM12.8201 2C13.0408 1.99993 13.2553 2.06831 13.4302 2.19447C13.6051 2.32064 13.7306 2.4975 13.7871 2.6975L14.9661 6.875L18.3201 8.68812C18.4721 8.77041 18.5983 8.88876 18.6861 9.03127C18.7739 9.17378 18.8201 9.33544 18.8201 9.5C18.8201 9.66456 18.7739 9.82622 18.6861 9.96873C18.5983 10.1112 18.4721 10.2296 18.3201 10.3119L14.9661 12.1259L13.7861 16.3025C13.7295 16.5023 13.604 16.679 13.4292 16.805C13.2544 16.931 13.0401 16.9994 12.8196 16.9994C12.5991 16.9994 12.3847 16.931 12.2099 16.805C12.0352 16.679 11.9097 16.5023 11.8531 16.3025L10.6741 12.125L7.32008 10.3119C7.16807 10.2296 7.04185 10.1112 6.95409 9.96873C6.86633 9.82622 6.82012 9.66456 6.82012 9.5C6.82012 9.33544 6.86633 9.17378 6.95409 9.03127C7.04185 8.88876 7.16807 8.77041 7.32008 8.68812L10.6741 6.87406L11.8541 2.6975C11.9105 2.49765 12.0359 2.32091 12.2106 2.19476C12.3853 2.06861 12.5996 2.00014 12.8201 2Z" fill="white"/>
</g>
<defs>
<clipPath id="clip0_3692_1083">
<rect width="18" height="18" fill="white" transform="translate(0.820068)"/>
</clipPath>
</defs>
</svg>
