<svg width="48" height="48" viewBox="0 0 48 48" fill="none" xmlns="http://www.w3.org/2000/svg">
<g clip-path="url(#clip0_3249_999)">
<mask id="mask0_3249_999" style="mask-type:luminance" maskUnits="userSpaceOnUse" x="0" y="0" width="48" height="48">
<path d="M47.4665 0H0.533203V48H47.4665V0Z" fill="white"/>
</mask>
<g mask="url(#mask0_3249_999)">
<path d="M8.07085 31.2762V24.738C8.07085 20.1363 5.3722 18.489 1.24414 18.489V24.738V34.2822C1.24416 36.442 2.03543 38.5375 3.48785 40.2242L8.07085 45.5447V46.9333" stroke="white" stroke-width="1.06667" stroke-linecap="square" stroke-linejoin="round"/>
<path d="M11.4851 37.6171L8.41297 32.8609C8.06278 32.2153 7.97913 31.4729 8.17785 30.7737C8.37657 30.0747 8.84388 29.4674 9.49159 29.0665C9.85035 28.8445 10.254 28.6923 10.6778 28.6193C11.1017 28.5464 11.5373 28.5542 11.9577 28.642C12.3784 28.7299 12.7754 28.8963 13.1249 29.131C13.4741 29.3657 13.7687 29.6638 13.9904 30.0073L16.5891 33.6303C17.7132 35.1949 18.3126 37.0339 18.3117 38.915V45.2566V46.9327" stroke="white" stroke-width="1.06667" stroke-linecap="square" stroke-linejoin="round"/>
<path d="M39.9287 31.2762V24.738C39.9287 20.1363 42.6274 18.489 46.7555 18.489V24.738V34.2822C46.7555 36.442 45.9642 38.5375 44.5119 40.2242L39.9287 45.5447V46.9333" stroke="white" stroke-width="1.06667" stroke-linecap="square" stroke-linejoin="round"/>
<path d="M36.5145 37.6171L39.5867 32.8609C39.9368 32.2153 40.0205 31.4729 39.8217 30.7737C39.6231 30.0747 39.1557 29.4674 38.5079 29.0665C38.1492 28.8445 37.7456 28.6923 37.3218 28.6193C36.8978 28.5464 36.4624 28.5542 36.0418 28.642C35.6211 28.7299 35.2242 28.8963 34.8748 29.131C34.5254 29.3657 34.2309 29.6638 34.0092 30.0073L31.4105 33.6303C30.2864 35.1949 29.6869 37.0339 29.688 38.915V45.2566V46.9327" stroke="white" stroke-width="1.06667" stroke-linecap="square" stroke-linejoin="round"/>
<path d="M37.1989 2.43728C36.4242 1.66519 35.5044 1.05275 34.4921 0.634905C33.4799 0.217058 32.3949 0.00199109 31.2993 0.00199109C30.2036 0.00199109 29.1187 0.217058 28.1064 0.634905C27.0941 1.05275 26.1745 1.66519 25.3996 2.43728C24.8156 3.01927 24.3754 3.68023 24.0002 4.36822C23.6298 3.65931 23.1576 3.0081 22.5985 2.4352C21.0339 0.875969 18.9116 0 16.6988 0C14.4861 0 12.3639 0.875969 10.7991 2.4352C9.2345 3.99444 8.35547 6.10922 8.35547 8.3143C8.35547 10.5194 9.2345 12.6342 10.7991 14.1934L24.0002 27.0221L37.1989 14.1934C37.9741 13.4219 38.5891 12.5055 39.0086 11.4969C39.4282 10.4883 39.6442 9.40723 39.6442 8.31534C39.6442 7.22351 39.4282 6.14237 39.0086 5.13376C38.5891 4.12516 37.9741 3.20886 37.1989 2.43728Z" fill="url(#paint0_radial_3249_999)"/>
</g>
</g>
<defs>
<radialGradient id="paint0_radial_3249_999" cx="0" cy="0" r="1" gradientUnits="userSpaceOnUse" gradientTransform="translate(24.1055 -33.1605) rotate(90) scale(65.5408 179.829)">
<stop stop-color="white"/>
<stop offset="1" stop-color="#0009B0"/>
</radialGradient>
<clipPath id="clip0_3249_999">
<rect width="46.9333" height="48" fill="white" transform="translate(0.533203)"/>
</clipPath>
</defs>
</svg>
