<svg width="166" height="22" viewBox="0 0 166 22" fill="none" xmlns="http://www.w3.org/2000/svg">
<path d="M162.597 14.3062L165.622 11.4354C165.722 11.3402 165.779 11.2077 165.78 11.067C165.781 10.9263 165.726 10.7889 165.627 10.685L162.645 7.55296C162.572 7.4753 162.477 7.42045 162.374 7.39536C162.271 7.37027 162.164 7.37607 162.067 7.41203C161.969 7.44799 161.886 7.51249 161.827 7.59735C161.768 7.68221 161.736 7.78361 161.736 7.88869L161.719 10.3596L161.711 11.4206L161.693 13.8915C161.692 13.9966 161.722 14.1007 161.78 14.1906C161.838 14.2806 161.92 14.3523 162.017 14.3967C162.114 14.4411 162.221 14.4562 162.324 14.4401C162.427 14.424 162.522 14.3774 162.597 14.3062Z" fill="#555555"/>
<line y1="11.0193" x2="162.256" y2="11.0193" stroke="#929292" stroke-width="2"/>
</svg>
